<?xml version="1.0" encoding="UTF-8" standalone="no"?>
<!-- Created with Inkscape (http://www.inkscape.org/) -->

<svg
   width="210mm"
   height="297mm"
   viewBox="0 0 210 297"
   version="1.1"
   id="svg5"
   inkscape:version="1.1.2 (b8e25be833, 2022-02-05)"
   sodipodi:docname="infographic-svg.svg"
   xmlns:inkscape="http://www.inkscape.org/namespaces/inkscape"
   xmlns:sodipodi="http://sodipodi.sourceforge.net/DTD/sodipodi-0.dtd"
   xmlns="http://www.w3.org/2000/svg"
   xmlns:svg="http://www.w3.org/2000/svg">
  <sodipodi:namedview
     id="namedview7"
     pagecolor="#ffffff"
     bordercolor="#666666"
     borderopacity="1.0"
     inkscape:pageshadow="2"
     inkscape:pageopacity="0.0"
     inkscape:pagecheckerboard="0"
     inkscape:document-units="mm"
     showgrid="false"
     inkscape:zoom="0.1799523"
     inkscape:cx="-1969.9665"
     inkscape:cy="1583.753"
     inkscape:window-width="2880"
     inkscape:window-height="1526"
     inkscape:window-x="-2891"
     inkscape:window-y="-11"
     inkscape:window-maximized="1"
     inkscape:current-layer="layer3" />
  <defs
     id="defs2" />
  <g
     inkscape:label="sole"
     inkscape:groupmode="layer"
     id="layer1"
     style="display:inline">
    <path
       style="fill:#0c0d0e;stroke:none;stroke-width:0.264583"
       d="M 512.62735,97.756553 C 505.2533,94.696136 498.39989,90.215327 491.00062,87.060993 469.16777,77.754307 445.73387,72.178503 422.02664,71.060757 380.32319,69.093502 340.22568,82.140549 299.79933,90.148008 261.72158,97.691179 222.45786,99.663221 183.72099,98.584901 135.65635,97.248022 87.884771,89.910777 40.953607,79.694435 -1.0079068,70.559441 -42.673361,59.721044 -84.997136,52.314174 -144.82376,41.843827 -206.67335,37.221045 -266.9471,46.785751 c -36.49548,5.793212 -72.35945,18.21102 -103.71801,37.944123 -6.66147,4.192074 -13.31413,8.401469 -19.63419,13.105346 -2.52406,1.878954 -5.9047,3.70025 -7.92757,6.11603 -5.78427,6.9074 -9.47329,16.72011 -12.78547,25.00284 -2.59053,6.47829 -4.16272,13.27871 -5.33637,20.13815 -9.49735,55.52795 37.17345,100.61174 78.95796,128.71384 7.92511,5.33019 16.065,10.7355 24.45987,15.31342 56.0155,30.53498 117.08551,53.37154 180.03575,64.93561 54.453439,10.0038 109.545274,11.58349 164.778602,11.45759 64.244543,-0.14451 128.458658,-3.5542 192.584298,-7.06995 l 118.33743,-6.52892 c 43.33308,-2.37406 86.75234,-5.73346 129.02974,-16.05272 35.75932,-8.72926 73.90219,-25.29639 95.13668,-56.87921 24.17305,-35.95285 24.52422,-85.76831 6.00879,-124.13072 -7.93867,-16.44937 -19.60428,-30.73502 -33.51228,-42.49671 -6.49105,-5.48941 -13.36812,-10.6436 -20.73026,-14.89414 -2.02327,-1.16813 -3.96875,-2.814965 -6.11052,-3.703777 m -8.10771,-2.89035 c 7.3694,3.16902 14.47397,8.220207 21.09463,12.675527 13.63513,9.17573 26.06693,20.6738 35.60012,34.11795 20.85795,29.41556 28.23394,67.84742 20.29696,102.97301 -2.86028,12.64823 -7.61654,25.49535 -14.89165,36.31294 -22.15218,32.94474 -60.39961,49.0421 -97.70213,58.14767 -43.37328,10.58754 -88.14102,13.40393 -132.57312,15.84004 L 221.815,361.21667 c -58.70612,3.21991 -117.42912,6.10928 -176.230588,6.79031 -49.0153375,0.56905 -98.350877,0.23222 -147.014542,-6.24251 -44.47368,-5.91621 -88.03202,-17.44478 -130.10896,-32.878 -23.99543,-8.80056 -47.86751,-18.96887 -70.28692,-31.18866 -7.94648,-4.33432 -16.31008,-8.72616 -23.81954,-13.7767 -37.21218,-25.02232 -76.19879,-54.3595 -87.87504,-100.20053 -1.59917,-6.2759 -2.26931,-12.69977 -2.48481,-19.15445 -0.27488,-8.19984 0.93157,-16.35405 2.90573,-24.2911 2.34966,-9.44642 6.18667,-18.80707 11.04839,-27.22782 1.61131,-2.79087 3.02783,-6.24414 5.32252,-8.53659 3.87243,-3.86843 9.04726,-6.777172 13.49344,-9.929401 14.17413,-10.049667 29.62662,-18.628033 45.50848,-25.663125 22.68223,-10.047141 46.76326,-16.876158 71.23858,-20.81041 66.08886,-10.625068 133.67277,-3.638687 198.956867,8.879934 45.915938,8.805064 91.029685,21.460182 137.01733,29.908205 43.073503,7.912751 86.277943,12.704188 130.085693,13.339147 36.00581,0.52227 72.69159,-2.710243 107.92512,-10.190132 38.05329,-8.077587 75.94249,-19.490486 115.27869,-17.635214 19.84065,0.935715 39.44604,5.30572 58.06749,12.136667 8.13342,2.983423 15.75425,6.912885 23.67671,10.319912"
       id="path980"
       sodipodi:nodetypes="cccccccccccsccccccccccssccscccscccccccccssccccccccscc" />
  </g>
  <g
     inkscape:groupmode="layer"
     id="layer2"
     inkscape:label="points"
     style="display:inline">
    <circle
       style="fill:none;stroke:#000000;stroke-width:2;stroke-miterlimit:4;stroke-dasharray:none;stroke-dashoffset:0;stroke-opacity:1;stop-color:#000000"
       id="path1168"
       cx="-330.6109"
       cy="162.83627"
       r="43.665592" />
    <circle
       style="fill:none;stroke:#000000;stroke-width:2;stroke-miterlimit:4;stroke-dasharray:none;stroke-dashoffset:0;stroke-opacity:1;stop-color:#000000"
       id="circle1294"
       cx="-211.05034"
       cy="109.29394"
       r="43.665592" />
    <circle
       style="fill:none;stroke:#000000;stroke-width:2;stroke-miterlimit:4;stroke-dasharray:none;stroke-dashoffset:0;stroke-opacity:1;stop-color:#000000"
       id="circle1296"
       cx="-186.61839"
       cy="209.62083"
       r="43.665592" />
    <circle
       style="fill:none;stroke:#000000;stroke-width:2;stroke-miterlimit:4;stroke-dasharray:none;stroke-dashoffset:0;stroke-opacity:1;stop-color:#000000"
       id="circle1298"
       cx="-98.247551"
       cy="304.74945"
       r="43.665592" />
    <circle
       style="fill:none;stroke:#000000;stroke-width:2;stroke-miterlimit:4;stroke-dasharray:none;stroke-dashoffset:0;stroke-opacity:1;stop-color:#000000"
       id="circle1300"
       cx="34.308716"
       cy="318.5249"
       r="43.665592" />
    <circle
       style="fill:none;stroke:#000000;stroke-width:2;stroke-miterlimit:4;stroke-dasharray:none;stroke-dashoffset:0;stroke-opacity:1;stop-color:#000000"
       id="circle1302"
       cx="371.65152"
       cy="154.83141"
       r="43.665592" />
    <circle
       style="fill:none;stroke:#000000;stroke-width:2;stroke-miterlimit:4;stroke-dasharray:none;stroke-dashoffset:0;stroke-opacity:1;stop-color:#000000"
       id="circle1304"
       cx="410.63867"
       cy="270.75317"
       r="43.665592" />
    <circle
       style="fill:none;stroke:#000000;stroke-width:2;stroke-miterlimit:4;stroke-dasharray:none;stroke-dashoffset:0;stroke-opacity:1;stop-color:#000000"
       id="circle1306"
       cx="479.51596"
       cy="204.21512"
       r="43.665592" />
  </g>
  <g
     inkscape:groupmode="layer"
     id="g13559"
     inkscape:label="points-fill">
    <circle
       style="fill:#ff0000;stroke:none;stroke-width:2;stroke-miterlimit:4;stroke-dasharray:none;stroke-dashoffset:0;stroke-opacity:1;stop-color:#000000;fill-opacity:1"
       id="circle13543"
       cx="-330.6109"
       cy="162.83627"
       r="43.665592" />
    <circle
       style="fill:#ff0000;stroke:none;stroke-width:2;stroke-miterlimit:4;stroke-dasharray:none;stroke-dashoffset:0;stroke-opacity:1;stop-color:#000000;fill-opacity:1"
       id="circle13545"
       cx="-211.05034"
       cy="109.29394"
       r="43.665592" />
    <circle
       style="fill:#ff0000;stroke:none;stroke-width:2;stroke-miterlimit:4;stroke-dasharray:none;stroke-dashoffset:0;stroke-opacity:1;stop-color:#000000;fill-opacity:1"
       id="circle13547"
       cx="-186.61839"
       cy="209.62083"
       r="43.665592" />
    <circle
       style="fill:#ff0000;stroke:none;stroke-width:2;stroke-miterlimit:4;stroke-dasharray:none;stroke-dashoffset:0;stroke-opacity:1;stop-color:#000000;fill-opacity:1"
       id="circle13549"
       cx="-98.247551"
       cy="304.74945"
       r="43.665592" />
    <circle
       style="fill:#ff0000;stroke:none;stroke-width:2;stroke-miterlimit:4;stroke-dasharray:none;stroke-dashoffset:0;stroke-opacity:1;stop-color:#000000;fill-opacity:1"
       id="circle13551"
       cx="34.308716"
       cy="318.5249"
       r="43.665592" />
    <circle
       style="fill:#ff0000;stroke:none;stroke-width:2;stroke-miterlimit:4;stroke-dasharray:none;stroke-dashoffset:0;stroke-opacity:1;stop-color:#000000;fill-opacity:1"
       id="circle13553"
       cx="371.65152"
       cy="154.83141"
       r="43.665592" />
    <circle
       style="fill:#ff0000;stroke:none;stroke-width:2;stroke-miterlimit:4;stroke-dasharray:none;stroke-dashoffset:0;stroke-opacity:1;stop-color:#000000;fill-opacity:1"
       id="circle13555"
       cx="410.63867"
       cy="270.75317"
       r="43.665592" />
    <circle
       style="fill:#ff0000;stroke:none;stroke-width:2;stroke-miterlimit:4;stroke-dasharray:none;stroke-dashoffset:0;stroke-opacity:1;stop-color:#000000;fill-opacity:1"
       id="circle13557"
       cx="479.51596"
       cy="204.21512"
       r="43.665592" />
  </g>
  <g
     inkscape:groupmode="layer"
     id="layer3"
     inkscape:label="num"
     style="display:inline">
    <text
       xml:space="preserve"
       style="font-style:normal;font-weight:normal;font-size:35.2778px;line-height:1.25;font-family:sans-serif;fill:#000000;fill-opacity:1;stroke:none;stroke-width:0.264583"
       x="474.17081"
       y="216.8688"
       id="text1597"><tspan
         sodipodi:role="line"
         id="tspan1595"
         style="font-style:normal;font-variant:normal;font-weight:normal;font-stretch:normal;font-size:35.2778px;font-family:'Roboto Slab';-inkscape-font-specification:'Roboto Slab';stroke-width:0.264583"
         x="474.17081"
         y="216.8688">1</tspan></text>
    <text
       xml:space="preserve"
       style="font-style:normal;font-weight:normal;font-size:35.2778px;line-height:1.25;font-family:sans-serif;fill:#000000;fill-opacity:1;stroke:none;stroke-width:0.264583"
       x="402.12625"
       y="283.39975"
       id="text2949"><tspan
         sodipodi:role="line"
         id="tspan2947"
         style="font-style:normal;font-variant:normal;font-weight:normal;font-stretch:normal;font-size:35.2778px;font-family:'Roboto Slab';-inkscape-font-specification:'Roboto Slab';stroke-width:0.264583"
         x="402.12625"
         y="283.39975">2</tspan></text>
    <text
       xml:space="preserve"
       style="font-style:normal;font-weight:normal;font-size:35.2778px;line-height:1.25;font-family:sans-serif;fill:#000000;fill-opacity:1;stroke:none;stroke-width:0.264583"
       x="361.69308"
       y="167.0625"
       id="text6967"><tspan
         sodipodi:role="line"
         id="tspan6965"
         style="font-style:normal;font-variant:normal;font-weight:normal;font-stretch:normal;font-size:35.2778px;font-family:'Roboto Slab';-inkscape-font-specification:'Roboto Slab';stroke-width:0.264583"
         x="361.69308"
         y="167.0625">3</tspan></text>
    <text
       xml:space="preserve"
       style="font-style:normal;font-weight:normal;font-size:35.2778px;line-height:1.25;font-family:sans-serif;fill:#000000;fill-opacity:1;stroke:none;stroke-width:0.264583"
       x="23.80456"
       y="330.80847"
       id="text9379"><tspan
         sodipodi:role="line"
         id="tspan9377"
         style="font-style:normal;font-variant:normal;font-weight:normal;font-stretch:normal;font-size:35.2778px;font-family:'Roboto Slab';-inkscape-font-specification:'Roboto Slab';stroke-width:0.264583"
         x="23.80456"
         y="330.80847">4</tspan></text>
    <text
       xml:space="preserve"
       style="font-style:normal;font-weight:normal;font-size:35.2778px;line-height:1.25;font-family:sans-serif;fill:#000000;fill-opacity:1;stroke:none;stroke-width:0.264583"
       x="-108.23188"
       y="316.25327"
       id="text10493"><tspan
         sodipodi:role="line"
         id="tspan10491"
         style="font-style:normal;font-variant:normal;font-weight:normal;font-stretch:normal;font-size:35.2778px;font-family:'Roboto Slab';-inkscape-font-specification:'Roboto Slab';stroke-width:0.264583"
         x="-108.23188"
         y="316.25327">5</tspan></text>
    <text
       xml:space="preserve"
       style="font-style:normal;font-weight:normal;font-size:35.2778px;line-height:1.25;font-family:sans-serif;fill:#000000;fill-opacity:1;stroke:none;stroke-width:0.264583"
       x="-197.64238"
       y="221.64449"
       id="text11115"><tspan
         sodipodi:role="line"
         id="tspan11113"
         style="font-style:normal;font-variant:normal;font-weight:normal;font-stretch:normal;font-size:35.2778px;font-family:'Roboto Slab';-inkscape-font-specification:'Roboto Slab';stroke-width:0.264583"
         x="-197.64238"
         y="221.64449">6</tspan></text>
    <text
       xml:space="preserve"
       style="font-style:normal;font-weight:normal;font-size:35.2778px;line-height:1.25;font-family:sans-serif;fill:#000000;fill-opacity:1;stroke:none;stroke-width:0.264583"
       x="-221.55449"
       y="120.79776"
       id="text12757"><tspan
         sodipodi:role="line"
         id="tspan12755"
         style="font-style:normal;font-variant:normal;font-weight:normal;font-stretch:normal;font-size:35.2778px;font-family:'Roboto Slab';-inkscape-font-specification:'Roboto Slab';stroke-width:0.264583"
         x="-221.55449"
         y="120.79776">7</tspan></text>
    <text
       xml:space="preserve"
       style="font-style:normal;font-weight:normal;font-size:35.2778px;line-height:1.25;font-family:sans-serif;fill:#000000;fill-opacity:1;stroke:none;stroke-width:0.264583"
       x="-340.07538"
       y="173.30045"
       id="text13331"><tspan
         sodipodi:role="line"
         id="tspan13329"
         style="font-style:normal;font-variant:normal;font-weight:normal;font-stretch:normal;font-size:35.2778px;font-family:'Roboto Slab';-inkscape-font-specification:'Roboto Slab';stroke-width:0.264583"
         x="-340.07538"
         y="173.30045">8</tspan></text>
  </g>
</svg>
