<?xml version="1.0" encoding="UTF-8" standalone="no"?>
<!-- Created with Inkscape (http://www.inkscape.org/) -->

<svg
   width="210mm"
   height="297mm"
   viewBox="0 0 210 297"
   version="1.1"
   id="svg5"
   inkscape:version="1.1.2 (b8e25be833, 2022-02-05)"
   sodipodi:docname="main-svg.svg"
   xmlns:inkscape="http://www.inkscape.org/namespaces/inkscape"
   xmlns:sodipodi="http://sodipodi.sourceforge.net/DTD/sodipodi-0.dtd"
   xmlns="http://www.w3.org/2000/svg"
   xmlns:svg="http://www.w3.org/2000/svg">
  <sodipodi:namedview
     id="namedview7"
     pagecolor="#ffffff"
     bordercolor="#666666"
     borderopacity="1.0"
     inkscape:pageshadow="2"
     inkscape:pageopacity="0.0"
     inkscape:pagecheckerboard="0"
     inkscape:document-units="mm"
     showgrid="false"
     inkscape:zoom="0.25449098"
     inkscape:cx="-339.89416"
     inkscape:cy="1481.3884"
     inkscape:window-width="2880"
     inkscape:window-height="1526"
     inkscape:window-x="-2891"
     inkscape:window-y="-11"
     inkscape:window-maximized="1"
     inkscape:current-layer="g13559" />
  <defs
     id="defs2" />
  <g
     inkscape:label="sole"
     inkscape:groupmode="layer"
     id="layer1"
     sodipodi:insensitive="true"
     style="display:inline">
    <path
       style="fill:#0c0d0e;stroke:none;stroke-width:0.264583"
       d="M 512.62735,97.756553 C 505.2533,94.696136 498.39989,90.215327 491.00062,87.060993 469.16777,77.754307 445.73387,72.178503 422.02664,71.060757 380.32319,69.093502 340.22568,82.140549 299.79933,90.148008 261.72158,97.691179 222.45786,99.663221 183.72099,98.584901 135.65635,97.248022 87.884771,89.910777 40.953607,79.694435 -1.0079068,70.559441 -42.673361,59.721044 -84.997136,52.314174 -144.82376,41.843827 -206.67335,37.221045 -266.9471,46.785751 c -36.49548,5.793212 -72.35945,18.21102 -103.71801,37.944123 -6.66147,4.192074 -13.31413,8.401469 -19.63419,13.105346 -2.52406,1.878954 -5.9047,3.70025 -7.92757,6.11603 -5.78427,6.9074 -9.47329,16.72011 -12.78547,25.00284 -2.59053,6.47829 -4.16272,13.27871 -5.33637,20.13815 -9.49735,55.52795 37.17345,100.61174 78.95796,128.71384 7.92511,5.33019 16.065,10.7355 24.45987,15.31342 56.0155,30.53498 117.08551,53.37154 180.03575,64.93561 54.453439,10.0038 109.545274,11.58349 164.778602,11.45759 64.244543,-0.14451 128.458658,-3.5542 192.584298,-7.06995 l 118.33743,-6.52892 c 43.33308,-2.37406 86.75234,-5.73346 129.02974,-16.05272 35.75932,-8.72926 73.90219,-25.29639 95.13668,-56.87921 24.17305,-35.95285 24.52422,-85.76831 6.00879,-124.13072 -7.93867,-16.44937 -19.60428,-30.73502 -33.51228,-42.49671 -6.49105,-5.48941 -13.36812,-10.6436 -20.73026,-14.89414 -2.02327,-1.16813 -3.96875,-2.814965 -6.11052,-3.703777 m -8.10771,-2.89035 c 7.3694,3.16902 14.47397,8.220207 21.09463,12.675527 13.63513,9.17573 26.06693,20.6738 35.60012,34.11795 20.85795,29.41556 28.23394,67.84742 20.29696,102.97301 -2.86028,12.64823 -7.61654,25.49535 -14.89165,36.31294 -22.15218,32.94474 -60.39961,49.0421 -97.70213,58.14767 -43.37328,10.58754 -88.14102,13.40393 -132.57312,15.84004 L 221.815,361.21667 c -58.70612,3.21991 -117.42912,6.10928 -176.230588,6.79031 -49.0153375,0.56905 -98.350877,0.23222 -147.014542,-6.24251 -44.47368,-5.91621 -88.03202,-17.44478 -130.10896,-32.878 -23.99543,-8.80056 -47.86751,-18.96887 -70.28692,-31.18866 -7.94648,-4.33432 -16.31008,-8.72616 -23.81954,-13.7767 -37.21218,-25.02232 -76.19879,-54.3595 -87.87504,-100.20053 -1.59917,-6.2759 -2.26931,-12.69977 -2.48481,-19.15445 -0.27488,-8.19984 0.93157,-16.35405 2.90573,-24.2911 2.34966,-9.44642 6.18667,-18.80707 11.04839,-27.22782 1.61131,-2.79087 3.02783,-6.24414 5.32252,-8.53659 3.87243,-3.86843 9.04726,-6.777172 13.49344,-9.929401 14.17413,-10.049667 29.62662,-18.628033 45.50848,-25.663125 22.68223,-10.047141 46.76326,-16.876158 71.23858,-20.81041 66.08886,-10.625068 133.67277,-3.638687 198.956867,8.879934 45.915938,8.805064 91.029685,21.460182 137.01733,29.908205 43.073503,7.912751 86.277943,12.704188 130.085693,13.339147 36.00581,0.52227 72.69159,-2.710243 107.92512,-10.190132 38.05329,-8.077587 75.94249,-19.490486 115.27869,-17.635214 19.84065,0.935715 39.44604,5.30572 58.06749,12.136667 8.13342,2.983423 15.75425,6.912885 23.67671,10.319912"
       id="path980"
       sodipodi:nodetypes="cccccccccccsccccccccccssccscccscccccccccssccccccccscc" />
  </g>
  <g
     inkscape:label="GRF-points"
     inkscape:groupmode="layer"
     id="g1082"
     style="display:none"
     sodipodi:insensitive="true">
    <path
       style="fill:#0c0d0e;stroke:none;stroke-width:0.264583"
       d="m 494.82567,167.21916 c -6.37805,-2.55778 -12.71831,-3.79988 -19.62701,-3.57587 -25.76586,0.83393 -43.43905,26.4971 -36.88993,50.83539 3.59211,13.34159 13.9811,23.84295 26.65029,28.81269 5.39056,2.11444 11.32963,2.95076 17.09381,2.67181 5.5224,-0.26762 11.10024,-1.45675 16.07249,-3.95177 5.8423,-2.93308 11.80363,-7.24709 15.52667,-12.7272 14.46383,-21.28971 5.2596,-52.40631 -18.82632,-62.06505 m 0.37071,2.00372 c 28.66093,12.31267 32.22952,54.62453 4.61039,70.09314 -6.02588,3.37274 -12.7231,4.95555 -19.5902,5.06516 -5.6301,0.089 -11.51091,-1.12334 -16.65342,-3.43459 -24.4952,-11.00834 -33.47549,-42.93083 -14.81724,-63.4951 3.35839,-3.70022 7.59308,-6.45763 12.05367,-8.62205 4.65661,-2.26054 9.87965,-3.41193 15.03134,-3.63542 6.77465,-0.29345 13.19419,1.37753 19.36546,4.02886 m -105.6265,-51.47037 c -7.71553,-3.19921 -15.6948,-5.43892 -24.1716,-4.17107 -6.30613,0.94247 -12.28763,2.97365 -17.61927,6.49332 -3.76294,2.48534 -7.22942,5.59492 -9.84372,9.28694 -3.83324,5.40641 -6.76047,11.49782 -7.78922,18.11095 -2.87921,18.50716 8.69965,37.40394 25.64598,44.65977 17.91119,7.6696 39.60975,2.67267 51.11364,-13.4797 14.11306,-19.81433 5.37213,-51.48467 -17.33581,-60.90021 m 1.28673,2.53382 c 4.67861,2.01409 9.26227,6.40984 12.33224,10.38994 11.21278,14.54081 12.04473,34.52579 0.53105,49.19228 -11.21704,14.29027 -31.67786,17.87362 -47.83685,10.51876 -24.21572,-11.02143 -31.96928,-42.03128 -14.66175,-62.4891 2.97458,-3.51699 6.92525,-6.50742 11.0146,-8.61092 8.80017,-4.52673 19.45459,-5.63992 28.99755,-2.97067 3.42481,0.95782 6.39568,2.58017 9.62316,3.96971 m 92.30362,70.31295 0.39688,-0.68741 -5.7284,-3.30729 -0.39688,0.68741 c 2.50567,1.52851 1.18221,6.0486 -1.84419,5.82949 -1.60408,-0.11619 -3.05563,-1.45437 -3.92341,-2.71887 -2.98934,-4.3579 0.19862,-11.6629 5.52764,-12.21999 4.10899,-0.42832 7.65226,2.7426 6.41968,6.87246 1.5847,0.22384 2.90374,-2.79107 1.98122,-4.04012 -1.8125,-2.45395 -5.83291,-4.08406 -8.76936,-4.31082 -8.59296,-0.66347 -11.77529,10.63756 -5.23179,15.41173 1.18435,0.86434 5.86301,3.94197 7.29099,2.90797 1.72404,-1.25046 1.22005,-5.17706 4.27762,-4.42456 m 6.49874,-7.55198 0.56663,3.08257 -4.28976,7.59948 -2.00723,3.08504 -2.43624,-0.15122 -0.39688,0.68741 6.31896,3.34274 0.13229,-0.22914 c -2.06885,-2.50205 -0.14042,-4.51928 1.24507,-6.91902 3.04755,1.79646 1.65339,5.09491 2.41485,8.08345 0.46306,1.81203 1.77765,2.80535 3.27555,3.75631 l -0.76084,-3.80451 -0.27595,-6.57054 c 3.26464,0.71135 6.86542,-2.54616 4.91781,-5.89323 -1.65385,-2.83987 -5.96834,-4.48976 -8.70423,-6.06933 m 14.20643,8.20209 0.62959,2.82533 -4.61735,8.31498 -1.80909,2.58839 -2.50208,0.11629 -0.1323,0.22914 c 1.46528,1.54194 4.34781,3.20617 6.41581,3.70417 l 0.1323,-0.22914 c -2.35372,-2.73893 -0.27763,-4.81082 1.28051,-7.50959 1.71394,0.98954 4.4523,1.85044 3.65667,4.24979 l 0.91654,0.52916 2.38125,-4.12444 c -1.08534,-0.2368 -2.03854,0.41935 -3.14159,0.14973 -4.76966,-1.16844 -1.34484,-5.079 0.15588,-7.67832 2.44259,1.41023 5.01731,2.4064 4.04405,5.6955 l 0.91655,0.52917 1.25262,-3.54545 -2.47615,-1.74367 -7.10321,-4.10104 m -14.54445,1.37922 c 0.80367,-1.392 2.20754,-5.31053 3.72811,-5.91224 1.13691,-0.45049 2.86617,1.26923 3.23423,2.20335 0.97484,2.48664 -1.46395,5.7371 -4.12632,5.14676 -1.0155,-0.22548 -1.94698,-0.92458 -2.83602,-1.43787 m -117.34167,-47.58328 2.90132,-4.70774 2.17766,-0.91433 -5.72839,-3.30729 c 0.10742,1.20037 1.50962,1.79852 1.15388,3.12376 -1.33374,4.97181 -6.60148,3.16322 -8.00231,-0.76577 -2.16106,-6.0571 5.06752,-14.28053 11.04194,-9.62136 0.96072,0.74898 1.84741,1.7479 2.05332,2.98405 0.21858,1.30945 -0.45667,2.44198 0.68169,3.39128 0.48002,-1.00602 1.57819,-2.74951 1.3467,-3.8883 -0.31516,-1.55493 -2.86718,-2.79677 -4.10329,-3.50799 -5.50655,-3.16766 -12.50064,-1.28233 -13.86579,5.43721 -0.29699,1.45632 -0.2223,2.87212 0.32772,4.25837 0.67325,1.69141 1.86224,2.79643 3.21239,3.9557 1.97916,1.69961 4.49509,2.4272 6.80316,3.56241 m 11.2777,-12.12521 -0.39688,0.6874 c 2.83083,2.49991 -2.03994,7.26391 -3.42313,9.63321 -0.6089,1.04465 -1.18621,2.58903 -2.26911,3.2317 -0.85778,0.51206 -1.711,0.18015 -2.53579,-0.20104 0.10337,1.99054 4.21648,3.43892 5.78979,4.25929 l -0.78559,-2.32759 2.52438,-4.91742 c 2.84906,1.73809 1.54446,5.04548 2.02588,7.87875 0.35131,2.07441 1.58753,3.06586 3.3031,4.05787 l -0.6825,-3.75501 -0.12516,-6.48777 c 3.29339,0.81503 7.08996,-2.25245 5.15356,-5.77238 -1.49315,-2.71075 -5.96517,-4.77573 -8.57855,-6.28701 m 13.94184,8.66036 0.59139,3.09259 -3.48077,5.62671 -2.99964,4.67694 -2.50675,0.0873 -0.39688,0.68741 6.18667,3.57188 0.26458,-0.45828 c -2.64508,-2.14428 0.21161,-5.12901 1.50966,-7.37729 1.84225,1.06362 4.48651,2.19863 3.39209,4.70806 l 0.91654,0.52916 2.51354,-4.35358 -2.55623,0.17303 -3.73678,-1.97321 3.89786,-5.69295 c 2.55161,2.41202 3.92818,2.27139 3.77947,6.15377 l 0.45826,0.26458 1.98438,-3.43704 -9.81739,-6.2791 m -14.50901,0.78865 c 0.66746,-1.05026 1.45399,-1.9945 2.08123,-3.07561 0.41574,-0.71409 0.78352,-1.64285 1.38185,-2.22403 1.20947,-1.1794 2.97853,0.51899 3.50599,1.63741 1.36233,2.8897 -1.91929,6.09715 -4.74791,5.10684 -0.86925,-0.30419 -1.53162,-0.85553 -2.22112,-1.44459 m 93.32412,68.5454 -4.55677,-1.10327 -0.26458,0.45826 1.61838,1.94349 -1.17911,2.58733 -4.52077,7.43862 -3.06225,0.4039 6.4158,3.70417 c -0.0514,-1.04859 -1.14555,-1.61948 -0.9909,-2.72872 0.63862,-4.53511 5.94781,-8.02649 6.5402,-12.70378 m -113.62104,-50.3234 c 1.15838,-0.0855 2.53927,-0.50879 3.63294,0.0576 1.33374,0.69024 1.71803,2.88213 0.45571,3.8303 -1.59608,1.19816 -3.74706,-0.13506 -5.09509,1.03033 3.09564,1.31098 4.40545,6.1067 0.17015,7.05542 -3.09105,0.69188 -2.7184,-2.7793 -4.79078,-3.20621 -1.94983,-0.40106 -0.54922,2.41177 0.0911,2.93787 1.98327,1.62898 5.74109,1.91475 7.96434,0.68335 2.51401,-1.39105 2.86557,-4.84692 0.6637,-6.63173 1.09352,-0.39121 2.52378,-0.25439 3.42463,-1.07916 3.82658,-3.50048 -4.29162,-9.10316 -6.51668,-4.67774 m 64.85703,73.93099 c -6.41218,-2.64682 -13.34247,-4.33803 -20.33994,-3.92851 -5.61542,0.32818 -11.13295,1.60865 -16.20718,4.08451 -4.57634,2.23263 -9.14906,5.35856 -12.36804,9.35708 -4.97722,6.17605 -8.78202,13.1842 -9.90482,21.16673 -2.75478,19.5881 10.19156,37.96312 27.92592,45.05527 5.3364,2.13418 11.6734,3.05911 17.3858,2.69525 12.37222,-0.78652 24.64054,-6.88054 31.68209,-17.35179 13.79333,-20.51465 5.05953,-51.48826 -18.17383,-61.07854 m 0.14105,1.87237 c 22.03161,9.43323 30.19912,40.13887 15.85377,59.17018 -11.61969,15.42162 -31.62418,19.41049 -48.97896,11.96252 -16.06456,-6.894 -26.49838,-24.79485 -24.06421,-42.21895 0.83025,-5.94654 3.34448,-10.79344 6.30133,-15.91485 2.66674,-4.61892 6.76191,-8.39938 11.27265,-11.21158 3.74216,-2.33296 7.88287,-4.19204 12.2097,-5.11936 9.53875,-2.0436 18.56275,-0.45454 27.40566,3.332 m -16.68282,25.72049 c 0.89864,-3.01171 2.30168,-3.93362 4.8144,-5.16379 l -5.82524,-3.66872 c 0.056,1.14132 1.37022,1.66425 1.21341,2.87247 -0.55915,4.25989 -4.73796,4.16886 -7.024,1.37093 -1.84756,-2.26094 -1.69367,-5.37969 -0.56626,-7.92507 1.1124,-2.50884 3.53367,-4.58064 6.34318,-4.7214 3.90337,-0.19386 7.49834,2.96689 6.04565,6.98585 l 0.91654,0.52917 c 0.52277,-0.92146 1.55952,-2.49479 1.45137,-3.58804 -0.25942,-2.63574 -5.84044,-4.81187 -7.98207,-5.20879 -5.04789,-0.93527 -9.6499,2.61184 -10.16318,7.71302 -0.16479,1.64538 0.14105,3.09473 0.94968,4.54107 0.81897,1.46545 2.29976,2.73711 3.70641,3.63447 1.80202,1.14918 4.00231,2.27529 6.12011,2.62883 m 10.78398,-11.79923 0.88921,2.59791 -1.69965,3.04448 -5.01677,7.76326 -2.43625,-0.1512 -0.39688,0.68741 5.82525,3.66871 0.39687,-0.6874 c -2.23385,-1.97285 0.19084,-4.56389 1.34191,-6.5576 3.13535,1.49093 1.71671,5.12811 2.26217,7.99866 0.35793,1.88301 1.74208,3.09979 3.42824,3.8411 l -1.16908,-10.14592 c 3.22436,0.4107 7.48455,-2.27974 5.28381,-5.98742 -1.71829,-2.89756 -5.90418,-4.45273 -8.70881,-6.07198 m 13.94185,8.66036 c 0.10861,0.91784 0.90389,1.61469 0.76228,2.59551 -0.37711,2.57406 -3.14256,5.62828 -4.56165,7.73701 -0.60869,0.90608 -1.02336,2.17469 -1.90415,2.85889 -0.83068,0.645 -1.68188,0.44717 -2.55995,0.063 l -0.39687,0.68741 6.05437,3.80101 0.39688,-0.6874 c -2.0174,-1.48523 -0.69339,-6.20206 1.83587,-6.65645 2.05854,-0.36933 3.88908,2.27561 3.06588,3.98721 l 0.91654,0.52916 2.51354,-4.35358 -2.67013,0.3703 -3.39373,-2.03823 c 1.61436,-2.79615 4.09337,-7.89954 7.2528,-3.04779 0.8212,1.26052 -0.11571,2.66633 0.8828,3.77319 l 1.75524,-3.56933 -9.94969,-6.04996 m -14.27986,0.92095 c 0.80367,-1.39201 2.20754,-5.31054 3.72811,-5.91224 1.37533,-0.54594 3.22375,1.62354 3.42616,2.77579 0.85855,4.91587 -4.32215,4.77157 -7.15427,3.13645 m -21.11664,18.05424 c 1.22972,-0.1085 2.57053,-0.64228 3.77728,-0.19243 2.72244,1.01547 2.15714,4.38642 0.24616,5.87602 -3.08561,2.40224 -8.14869,1.60972 -10.8931,4.09836 l 8.21344,5.35306 2.63633,-2.4496 -0.55511,-0.62601 c -2.64258,1.02107 -4.9373,-1.07918 -7.20955,-2.32935 3.79151,-1.01613 14.90967,-2.31343 11.59013,-8.97278 -1.3031,-2.61659 -6.39201,-3.84593 -7.80558,-0.75727 M -193.17135,72.460752 c -7.45061,-3.088712 -14.81806,-4.876817 -22.95793,-4.156545 -5.39492,0.478093 -10.85673,2.011309 -15.58223,4.690653 -4.59444,2.605291 -8.59137,5.821371 -11.95637,9.900281 -18.13165,21.977329 -6.74805,54.050949 18.2258,64.510139 5.36523,2.24829 11.32318,3.17678 17.11552,3.16338 4.66121,-0.0127 9.3912,-1.04878 13.73935,-2.67504 27.90107,-10.43136 34.19134,-47.02065 12.93696,-67.342181 -3.29855,-3.15398 -7.27297,-6.328491 -11.5211,-8.090687 m -1.46396,0.948157 c 23.4491,9.951603 31.64266,41.100001 15.97486,61.071951 -3.54812,4.52311 -8.27652,8.06844 -13.40628,10.59075 -4.71005,2.31553 -10.09528,3.59967 -15.32585,3.87935 -6.64774,0.35359 -13.14979,-1.13957 -19.22113,-3.74969 -24.25841,-10.41886 -31.89696,-42.2428 -14.92357,-62.298079 2.86277,-3.382071 6.48573,-6.221349 10.3488,-8.384305 5.2705,-2.951275 11.2853,-4.376028 17.2778,-4.76574 6.54667,-0.427209 13.28207,1.112076 19.27537,3.655763 m -15.89804,26.477864 2.90174,-4.706882 2.17725,-0.915179 -5.7284,-3.30729 c 0.0997,1.111587 1.36761,1.687809 1.2126,2.872304 -0.50878,3.882639 -4.23464,4.138968 -6.63371,1.754831 -2.05733,-2.046298 -2.22399,-5.249603 -1.19054,-7.83334 0.97552,-2.440001 2.98419,-4.70205 5.65743,-5.187269 4.33847,-0.785572 8.29204,2.538827 6.96619,6.976258 1.46607,0.29651 2.82236,-2.546889 2.09906,-3.783274 -1.75712,-3.003377 -6.41671,-4.755652 -9.68651,-4.770674 -6.08897,-0.02954 -10.28943,7.260686 -7.23636,12.533735 2.02649,3.504126 6.07246,4.700496 9.46126,6.366785 m 11.2777,-12.12521 -0.39688,0.687408 c 3.02523,2.229328 -2.08898,7.348335 -3.4229,9.633341 -0.60447,1.034984 -1.1859,2.599603 -2.26676,3.228173 -0.8267,0.48202 -1.71634,0.0814 -2.53837,-0.19764 0.0963,1.8673 4.26013,3.4464 5.7898,4.25928 l -0.78527,-2.32923 2.52405,-4.915775 c 2.96414,1.809152 1.51687,5.299625 2.11742,8.221835 0.39315,1.91037 1.62342,2.79786 3.21155,3.71477 l -0.68285,-3.7549 -0.1248,-6.487863 c 3.28342,0.716393 7.08868,-2.252882 5.15247,-5.772099 -1.49167,-2.709583 -5.96458,-4.77569 -8.57746,-6.2873 m 13.94183,8.660355 0.59252,3.091718 -3.48235,5.627329 -2.99912,4.67815 -2.50681,0.0864 -0.39688,0.6874 6.18667,3.57188 -1.0144,-2.46152 2.78864,-5.37405 3.47803,2.41132 0.83061,2.8259 2.51354,-4.35358 -2.33028,0.26163 -3.96274,-2.06181 c 1.23333,-1.30434 2.01396,-4.37622 3.59735,-5.15765 3.10557,-1.534062 4.14359,3.95042 4.07997,5.61847 l 0.45828,0.26458 1.98437,-3.43704 -9.8174,-6.279107 m -14.50899,0.788661 c 0.66801,-1.050237 1.45497,-1.995143 2.08121,-3.075615 0.41758,-0.721272 0.7901,-1.645772 1.38782,-2.235562 1.21197,-1.197507 2.96792,0.522029 3.50082,1.648476 1.36177,2.891212 -1.92146,6.097729 -4.74865,5.107039 -0.87009,-0.303761 -1.53219,-0.85401 -2.22124,-1.444358 m -18.80627,15.110926 -2.44265,3.17245 2.91004,-0.27518 5.57748,3.03686 -13.88553,8.17544 c 2.30147,1.31652 3.47447,-0.1876 5.51857,-1.39657 3.68649,-2.17935 7.24743,-4.57785 10.86151,-6.86622 l -8.53942,-5.84678 m 271.810361,168.9732 c -8.970607,-3.71883 -17.936764,-5.93195 -27.713909,-3.85644 -5.219362,1.10799 -10.281842,3.09784 -14.693261,6.1296 -4.7748364,3.28022 -8.7639843,7.51204 -11.8745247,12.39165 -13.4660623,21.13316 -1.9121504,50.08498 20.2747337,59.58281 16.89129,7.23475 38.891695,3.11201 50.090216,-12.23626 14.558247,-19.9557 7.647829,-52.17193 -16.083255,-62.01136 m -1.693091,0.81586 c 20.029797,8.60377 29.847372,34.15483 20.256316,53.76739 -4.152522,8.49414 -11.422022,14.98398 -20.060308,18.66411 -4.655518,1.98346 -9.953559,3.00019 -15.016277,2.97962 -5.962243,-0.0236 -11.961378,-1.26917 -17.403134,-3.72355 -16.3399879,-7.37473 -26.8878605,-25.1627 -23.9704888,-43.11682 0.9447539,-5.8062 3.4672341,-10.54568 6.4852488,-15.50316 3.1026839,-5.10413 7.6806903,-9.21289 12.927945,-12.08898 5.634454,-3.08637 11.84368,-4.43248 18.19511,-4.77077 6.399032,-0.34137 12.758122,1.28616 18.585588,3.79216 m -11.048187,20.72352 -5.728403,-3.3073 c 0.06052,1.2234 1.516156,1.77662 1.154413,3.12284 -1.344853,5.00694 -6.576737,3.10448 -8.009709,-0.76881 -2.290679,-6.19243 5.023852,-14.02499 11.066141,-9.64742 1.012112,0.73405 1.855967,1.74367 2.065963,3.00448 0.216328,1.31335 -0.490696,2.44799 0.651716,3.40086 0.437186,-1.04297 1.543153,-2.74162 1.334977,-3.89445 -0.236695,-1.30983 -2.359648,-2.49581 -3.404149,-3.10496 -3.996993,-2.33214 -9.095491,-3.23795 -12.497328,0.72805 -4.749116,5.53753 -1.08517,12.13481 4.891638,14.56205 0.878257,0.35736 1.952238,1.12713 2.925015,1.11439 1.569442,-0.0196 2.232244,-3.16256 3.184603,-4.1189 0.672508,-0.67798 1.655886,-0.49212 2.365123,-1.09083 m 6.198706,-6.50316 0.592054,3.09146 -4.412052,7.22916 -2.253348,3.25731 -2.551561,-0.22665 c 0.103375,1.99053 4.216217,3.43938 5.789794,4.25929 l -0.80287,-2.32413 2.541663,-4.92087 c 2.849699,1.73695 1.543927,5.04638 2.025877,7.87874 0.350776,2.07531 1.586872,3.06699 3.303101,4.05786 l -0.682631,-3.75477 -0.125026,-6.48799 c 3.276284,0.79171 7.073881,-2.28282 5.153154,-5.77171 -1.493285,-2.71051 -5.965031,-4.77596 -8.578155,-6.2877 m 13.941848,8.66036 0.662125,2.8325 -4.879011,8.17552 -2.163059,2.66174 -2.377257,-0.0893 -0.13229,0.22913 6.283512,3.9333 0.26458,-0.45827 c -2.772225,-2.04049 0.247592,-5.19134 1.509652,-7.37729 1.982029,1.14432 4.222913,2.0837 3.392095,4.70805 l 0.916541,0.52917 2.513545,-4.35359 -2.556628,0.17371 -3.736383,-1.97389 3.897854,-5.69294 3.732175,2.99188 0.505571,3.42646 1.984375,-3.43703 -9.817397,-6.27911 m -10.70799,-5.26572 c 3.33002,1.18019 5.100533,6.34212 0.675923,7.61873 -1.102452,0.3167 -4.246173,-0.17546 -4.150274,-1.81264 0.09845,-1.62043 2.629006,-4.34191 3.474351,-5.80609 M -171.20365,172.52407 c -6.38909,-2.5614 -13.12148,-3.89424 -20.01277,-3.43686 -5.44701,0.36246 -10.71268,1.71258 -15.61677,4.12077 -4.13487,2.03047 -8.01473,4.84059 -11.1339,8.23654 -5.47335,5.95957 -9.46577,13.54404 -10.7398,21.60119 -2.95235,18.66718 8.86004,37.97649 26.16891,44.91769 6.38932,2.56152 13.16677,3.80734 20.05643,3.36123 5.10761,-0.33234 10.09437,-1.75182 14.71072,-3.93203 5.48621,-2.59148 10.57241,-6.51683 14.41503,-11.23041 16.96234,-20.80713 6.38583,-53.92095 -17.84785,-63.63812 m 3.71065,3.62713 c 4.58792,2.03782 9.03344,6.45586 12.02544,10.39216 10.17044,13.37229 11.9776,31.82692 2.37715,46.10588 -10.45543,15.54815 -31.7913,21.59436 -48.91735,13.86662 -11.86518,-5.35639 -21.07123,-15.54446 -24.27092,-28.32007 -4.79957,-19.16494 6.82738,-39.6643 25.53659,-45.74832 11.91637,-3.87418 22.31427,-1.15217 33.24909,3.70373 m -19.33507,24.4935 2.99493,-4.64392 2.1809,-0.61671 -5.82525,-3.66872 c 0.0565,1.21189 1.49767,1.82399 1.15355,3.1254 -1.06147,4.00652 -4.58526,4.02818 -6.96413,1.11801 -1.69894,-2.08074 -1.77694,-4.77458 -0.89577,-7.19878 0.95923,-2.63882 3.15588,-4.84122 5.97743,-5.30498 4.24962,-0.69939 7.78802,2.65722 6.7409,6.84314 l 0.91654,0.52916 c 0.4849,-0.92987 1.66903,-2.77283 1.37594,-3.83415 -0.94777,-3.40986 -7.5819,-5.30923 -10.55363,-5.13993 -4.00931,0.2271 -6.96133,3.79287 -7.54223,7.56973 -0.23458,1.52655 -0.0236,2.99261 0.63241,4.39791 0.68096,1.45634 2.04741,2.79213 3.36907,3.68962 1.97491,1.34185 4.19612,2.34018 6.43934,3.13422 m 11.1454,-11.89608 c 0.10848,0.91808 0.90419,1.61578 0.76227,2.59398 -0.3846,2.63146 -3.18279,5.54975 -4.57332,7.73181 -0.58626,0.92024 -1.02115,2.18145 -1.89609,2.87087 -0.84807,0.66826 -1.66872,0.48471 -2.55631,0.0578 l -0.39687,0.68741 5.82523,3.66871 0.39688,-0.68741 c -2.31312,-1.86096 0.22802,-4.62827 1.34192,-6.55759 3.35041,1.97408 1.28004,5.78918 2.48185,8.95162 0.51279,1.34702 1.92323,3.11149 3.47313,2.42987 -1.7989,-2.81669 -1.37532,-6.48882 -1.43366,-9.68765 3.46051,0.43981 7.33089,-2.35439 5.05794,-6.11691 -1.6659,-2.76129 -5.7867,-4.38582 -8.48294,-5.94249 m 13.94184,8.66036 c 0.0376,1.03294 0.98636,1.77931 0.6966,2.85852 -0.65878,2.45177 -2.82137,4.65551 -4.1163,6.77667 -0.68123,1.11593 -1.24255,2.73797 -2.28747,3.56145 -0.84807,0.66826 -1.66871,0.4847 -2.55631,0.0578 l -0.39688,0.68741 6.05438,3.80101 0.39687,-0.68741 c -2.68975,-1.98065 0.14176,-5.00803 1.37737,-7.14816 1.92795,0.81676 4.59194,2.03402 3.52438,4.47893 l 0.91654,0.52916 2.51354,-4.35358 c -0.95428,-0.16906 -1.69988,0.50643 -2.6713,0.37024 -5.16533,-0.72445 -1.51535,-5.28957 -0.0853,-7.76653 2.61811,1.51156 5.03927,2.48476 3.91176,5.92463 l 0.91654,0.52916 1.75524,-3.56932 -9.94969,-6.04997 m -14.509,0.78866 c 1.13646,-1.32971 2.3798,-5.15487 3.95719,-5.7809 1.14351,-0.45186 2.88768,1.24254 3.24016,2.19149 0.91645,2.46608 -1.52448,5.51122 -4.10108,5.10513 -1.11052,-0.17677 -2.14009,-0.96367 -3.09627,-1.51572 m 196.451721,131.75232 5.825237,3.66872 c -1.329819,1.55719 -1.934754,2.90659 -4.143441,1.88499 0.100823,1.97379 4.011324,3.31802 5.560661,4.12699 -0.270762,-2.28271 -0.892495,-2.68749 0.41587,-4.95365 l 2.062223,1.19063 0.529165,-0.91654 -1.929933,-1.41976 5.388508,-8.80401 c -1.349801,-0.4402 -2.448104,0.12332 -3.729448,0.59643 -2.984433,1.09989 -7.843711,2.19275 -9.978842,4.6262 M -311.75317,126.50887 c -9.46099,-3.92251 -18.62326,-6.49022 -28.99188,-4.28876 -5.09637,1.08124 -10.05905,3.08289 -14.38476,6.0022 -18.60486,12.55703 -22.89089,38.05539 -10.41783,56.53631 5.0221,7.43946 12.35077,12.84385 20.6072,16.16562 17.68402,7.12112 40.14462,0.71913 50.28251,-15.79142 10.53654,-17.16027 6.11914,-40.18013 -9.03525,-53.00508 -2.40525,-2.03637 -5.12758,-4.40245 -8.05999,-5.61887 m -1.46396,0.94815 c 23.93975,10.29293 29.70158,44.1832 12.33981,62.63944 -12.14868,12.91467 -31.27191,15.1057 -46.98686,7.95436 -26.78448,-12.19197 -31.23185,-50.79204 -7.13138,-67.91791 12.71473,-9.03471 27.98436,-8.60822 41.77843,-2.67589 m 343.839055,198.73249 -3.933312,6.28351 -4.353579,-2.51354 c 2.006074,-1.82362 5.667174,-3.13775 8.286891,-3.76997 M -80.460749,268.2945 c -9.299182,-3.85352 -18.563404,-5.89962 -28.665911,-3.79503 -5.14962,1.07187 -10.47458,3.26763 -14.70869,6.4262 -4.22424,3.15206 -7.89948,6.7555 -10.73936,11.21396 -13.96839,21.91854 -2.87865,50.60544 20.33613,60.53479 17.396712,7.44407 39.032555,2.20652 50.161083,-13.4174 12.300247,-17.2724 8.056472,-41.71959 -7.887516,-55.04013 -2.530683,-2.1149 -5.427388,-4.64887 -8.495762,-5.9224 m -2.741935,0.51583 c 27.727122,11.87159 33.593829,51.99686 7.67586,69.11214 -6.044443,3.99229 -12.691664,5.90124 -19.8505,6.47912 -5.57217,0.44908 -11.87461,-0.56221 -17.03455,-2.77446 -6.74432,-2.89175 -12.87582,-6.69146 -17.52416,-12.50976 -3.71006,-4.64416 -6.47305,-9.93916 -8.05263,-15.67521 -4.95205,-18.01869 5.09589,-38.01516 22.25474,-45.17149 10.42918,-4.34787 22.236551,-3.8703 32.53124,0.53966 M -330.49,153.14113 c 1.06834,-3.01882 2.42279,-4.0302 4.94669,-5.39292 l -5.59611,-3.53644 -0.39687,0.68741 c 2.14792,1.40203 1.31066,4.91172 -1.20735,5.62709 -1.54788,0.43838 -3.0716,-0.74992 -4.05131,-1.81048 -4.59992,-4.9899 0.43884,-14.10887 7.10776,-12.84017 1.95563,0.37141 4.19058,1.94284 4.62248,3.95807 0.26419,1.23099 -0.27614,2.36106 0.62468,3.35775 0.5517,-0.96158 1.7379,-2.68418 1.42233,-3.84097 -0.77502,-2.83964 -6.30148,-4.77162 -8.81664,-5.04756 -4.58592,-0.50297 -8.36092,2.83512 -9.17475,7.26571 -0.2896,1.57423 -0.14537,3.06592 0.53804,4.52063 0.75637,1.60987 2.12205,2.87189 3.55231,3.89929 1.91401,1.37695 4.2164,2.37014 6.42876,3.15255 m 11.1454,-11.89607 0.63425,2.5384 -1.9318,3.43378 -4.75916,7.30067 -2.43592,-0.15072 -0.39688,0.6874 5.82524,3.66873 0.39688,-0.68741 c -2.05155,-1.81077 0.71309,-7.30253 2.66897,-5.67532 1.01898,0.84494 0.73271,2.50969 0.74711,3.67591 0.035,2.95928 0.19334,6.40828 3.61624,7.28158 l 0.26458,-0.45828 c -1.81098,-2.83282 -1.24339,-6.48292 -1.43367,-9.68764 3.48305,0.44365 7.56786,-2.40395 5.11099,-6.2146 -1.67984,-2.60436 -5.69722,-4.20584 -8.30685,-5.71251 m 122.8143,78.85024 c 1.56693,-1.65249 3.5803,-2.28649 5.84209,-2.18131 1.3303,0.0623 2.94177,0.8827 4.0133,-0.072 -4.06662,-1.42521 -8.24486,-2.14802 -11.90814,0.76269 -2.96601,2.35703 -5.4538,8.01169 -1.33229,10.52873 4.32766,2.64522 11.33487,-1.63138 7.81443,-6.65794 -1.07904,-1.54259 -2.728,-1.92024 -4.42939,-2.38012 m -109.23388,-70.09304 -0.13229,0.22914 c 0.53089,0.64257 1.14575,1.23281 1.02781,2.1393 -0.33885,2.61204 -3.30949,6.0968 -4.80887,8.2038 -0.58101,0.81634 -0.96061,1.99033 -1.78192,2.60377 -0.81436,0.6083 -1.63539,0.25343 -2.43592,-0.15071 l -0.39688,0.6874 6.05438,3.80101 0.39688,-0.68741 c -2.09882,-1.54475 -0.3327,-6.98977 2.35956,-6.6544 2.81845,0.35018 2.21216,3.11639 3.45873,4.51433 l 2.51354,-4.35358 c -2.80802,0.0133 -3.65557,0.15944 -6.06388,-1.66789 1.61528,-2.79775 4.14851,-7.81514 7.25276,-3.0472 0.8215,1.25947 -0.11492,2.66495 0.88284,3.77261 l 1.75523,-3.56934 -10.08197,-5.82083 m -14.14757,0.69181 c 0.83079,-1.43897 2.19448,-5.2313 3.76837,-5.8899 1.1104,-0.46488 2.8841,1.2313 3.23943,2.14831 0.97332,2.51417 -1.45876,5.77522 -4.1731,5.17963 -1.01262,-0.22413 -1.94703,-0.92554 -2.8347,-1.43804 m 221.401571,144.62957 c 0.663718,-1.87455 2.161243,-5.49492 4.549817,-4.70551 l 0.396875,-0.68741 -5.596099,-3.53643 -0.396875,0.6874 c 2.299542,1.62094 0.813453,6.13696 -2.115489,5.75964 -3.23957,-0.41612 -5.16393,-4.12096 -4.94102,-7.08408 0.38649,-5.13558 5.5911,-9.63108 10.632584,-6.98618 1.13776,0.5958 2.207142,1.44234 2.707416,2.66604 0.503538,1.22865 0.17522,2.51167 -0.0069,3.76909 1.710256,-0.17353 2.87369,-3.20465 1.656186,-4.46668 -2.408567,-2.49043 -5.938024,-4.35708 -9.463526,-4.23559 -5.52475,0.19232 -9.97525,6.62023 -7.42078,11.79484 1.8783,3.80046 6.21728,5.68843 9.997848,7.02487 m -98.020118,-75.22834 -0.36143,0.0969 0.36143,-0.0969 m 109.165522,63.33227 -0.396875,0.68741 c 1.516452,1.11992 1.016284,2.30374 0.167681,3.76298 -1.448822,2.49363 -4.876484,10.48361 -8.263418,8.67175 l -0.396875,0.68741 5.825236,3.66872 0.396875,-0.68741 c -2.205006,-1.77411 0.771046,-7.25686 2.668751,-5.67545 1.026356,0.85226 0.684362,2.48177 0.703115,3.6505 0.04427,2.95545 0.259463,6.44035 3.660453,7.30712 l 0.264585,-0.45828 c -1.820526,-2.8475 -1.242538,-6.47327 -1.433668,-9.68764 3.464136,0.76269 7.194779,-2.16414 5.20995,-5.8489 -1.477057,-2.74391 -5.800535,-4.57406 -8.40581,-6.07821 M -196.05315,221.38815 c 4.25598,1.54065 1.5014,9.22265 -2.28749,7.66145 -3.31592,-1.36759 -1.15229,-8.90502 2.28749,-7.66145 m 122.401072,70.56749 c 0.04235,0.95322 0.887462,1.60612 0.765237,2.59569 -0.32997,2.61411 -3.318167,6.10707 -4.810878,8.20569 -0.586521,0.82538 -0.968122,1.98904 -1.788076,2.61549 -0.888106,0.67571 -1.898406,0.0496 -2.826642,0.52498 l 6.054379,3.801 0.396875,-0.6874 c -2.069118,-1.41152 -0.672319,-6.21739 1.850436,-6.59701 2.027534,-0.30504 3.867023,2.22916 3.051311,3.92776 l 0.916544,0.52917 2.51354,-4.35358 c -1.048937,0.0177 -1.882758,0.73691 -2.962421,0.35798 -3.136743,-1.10221 -2.798242,-2.83151 -1.228747,-5.22187 0.380972,-0.58048 0.906864,-1.7189 1.610157,-1.94221 0.91002,-0.29032 2.335426,0.78622 2.988673,1.33751 1.648136,1.39455 0.464912,3.19525 1.664057,4.5261 l 1.755239,-3.56933 -9.949684,-6.04997 m -14.279865,0.92095 c 0.870475,-1.50771 2.069732,-4.91838 3.644716,-5.74134 1.205589,-0.63293 2.916489,1.03921 3.338646,2.04368 1.050156,2.50966 -1.479328,5.72668 -4.147747,5.13623 -1.015359,-0.22572 -1.946568,-0.92528 -2.835615,-1.43857 m -252.560327,-119.23603 -0.13229,0.22914 c -3.84689,-0.47651 -7.91151,3.53148 -4.27859,6.88155 4.41242,4.06898 11.50111,0.22436 7.75107,-5.48774 1.01908,-0.18764 2.19613,-0.18326 3.13018,-0.66441 5.19087,-2.6795 -2.84034,-11.37661 -6.53745,-5.57999 -0.39019,0.61184 -0.69267,1.28653 -0.73526,2.01962 -0.0578,0.99925 0.24844,1.80544 0.80234,2.60183 m 5.10726,-5.14134 c 2.64953,1.38306 0.30487,6.73847 -2.2571,5.48844 -2.72996,-1.33477 -1.01029,-7.19462 2.2571,-5.48844 m 229.79248,140.14975 -4.98214,5.98347 c 1.43364,0.70245 3.12633,1.1573 3.98025,2.63101 1.47006,2.54436 -0.2417,5.78438 -3.27819,5.67799 -1.84769,-0.0647 -3.08758,-3.521 -4.37055,-3.19853 -1.1325,0.28409 -0.52964,1.83282 -0.0517,2.40204 1.89961,2.26075 6.87711,2.47654 9.14043,0.81061 2.20901,-1.63008 2.2028,-5.10125 0.14172,-6.84419 -1.07402,-0.90727 -2.44319,-1.49914 -3.7548,-1.96314 l 2.80408,-3.26931 c 1.97973,1.143 4.57279,3.62081 6.751276,2.06477 l -6.380356,-4.29472 M -340.08505,175.0519 c 2.96841,1.61602 1.32796,8.11127 -2.39075,6.25756 -3.37982,-1.68554 -0.83,-8.01013 2.39075,-6.25756 z"
       id="path1080"
       sodipodi:nodetypes="cccccccccccccccccccccccccccccsccccccscccssccccccccccccccccccccccccccccccccccccccccccccccccccccccccccccccccccccccccccccccccccccccccccccccccccccccccccccccccccccccccccscccccccssccccccccccccccccccccccccccccccccccccccccccccccccccccccccccccccccccccccccccccccccccccccccccccccccccccccccccccccccccccccccccccccccccccccccccccccsccccccccccccccccccccccccccccccccccccccccccccccccccccccccccccccccccccsccccccccccccccccccccsccccccccccccsccccccccccccsccccccccccccccccccccccccccccccccccccccccccccccccccccccccccccccccccccccccccccsccccccccccccccccccccccccccccsccccccccccccccccccccccccccccccccccccccccccccccccccccccccccscccccccccccccccccsccsccccccccsccccccccccc" />
  </g>
  <g
     inkscape:groupmode="layer"
     id="layer2"
     inkscape:label="points"
     style="display:none">
    <circle
       style="fill:none;stroke:#000000;stroke-width:2;stroke-miterlimit:4;stroke-dasharray:none;stroke-dashoffset:0;stroke-opacity:1;stop-color:#000000"
       id="path1168"
       cx="-330.6109"
       cy="162.83627"
       r="43.665592" />
    <circle
       style="fill:none;stroke:#000000;stroke-width:2;stroke-miterlimit:4;stroke-dasharray:none;stroke-dashoffset:0;stroke-opacity:1;stop-color:#000000"
       id="circle1294"
       cx="-211.05034"
       cy="109.29394"
       r="43.665592" />
    <circle
       style="fill:none;stroke:#000000;stroke-width:2;stroke-miterlimit:4;stroke-dasharray:none;stroke-dashoffset:0;stroke-opacity:1;stop-color:#000000"
       id="circle1296"
       cx="-186.61839"
       cy="209.62083"
       r="43.665592" />
    <circle
       style="fill:none;stroke:#000000;stroke-width:2;stroke-miterlimit:4;stroke-dasharray:none;stroke-dashoffset:0;stroke-opacity:1;stop-color:#000000"
       id="circle1298"
       cx="-98.247551"
       cy="304.74945"
       r="43.665592" />
    <circle
       style="fill:none;stroke:#000000;stroke-width:2;stroke-miterlimit:4;stroke-dasharray:none;stroke-dashoffset:0;stroke-opacity:1;stop-color:#000000"
       id="circle1300"
       cx="34.308716"
       cy="318.5249"
       r="43.665592" />
    <circle
       style="fill:none;stroke:#000000;stroke-width:2;stroke-miterlimit:4;stroke-dasharray:none;stroke-dashoffset:0;stroke-opacity:1;stop-color:#000000"
       id="circle1302"
       cx="371.65152"
       cy="154.83141"
       r="43.665592" />
    <circle
       style="fill:none;stroke:#000000;stroke-width:2;stroke-miterlimit:4;stroke-dasharray:none;stroke-dashoffset:0;stroke-opacity:1;stop-color:#000000"
       id="circle1304"
       cx="410.63867"
       cy="270.75317"
       r="43.665592" />
    <circle
       style="fill:none;stroke:#000000;stroke-width:2;stroke-miterlimit:4;stroke-dasharray:none;stroke-dashoffset:0;stroke-opacity:1;stop-color:#000000"
       id="circle1306"
       cx="479.51596"
       cy="204.21512"
       r="43.665592" />
  </g>
  <g
     inkscape:groupmode="layer"
     id="g13559"
     inkscape:label="points-fill">
    <circle
       style="fill:#ff0000;stroke:none;stroke-width:2;stroke-miterlimit:4;stroke-dasharray:none;stroke-dashoffset:0;stroke-opacity:1;stop-color:#000000;fill-opacity:1"
       id="circle13543"
       cx="-330.6109"
       cy="162.83627"
       r="43.665592" />
    <circle
       style="fill:#ff0000;stroke:none;stroke-width:2;stroke-miterlimit:4;stroke-dasharray:none;stroke-dashoffset:0;stroke-opacity:1;stop-color:#000000;fill-opacity:1"
       id="circle13545"
       cx="-211.05034"
       cy="109.29394"
       r="43.665592" />
    <circle
       style="fill:#ff0000;stroke:none;stroke-width:2;stroke-miterlimit:4;stroke-dasharray:none;stroke-dashoffset:0;stroke-opacity:1;stop-color:#000000;fill-opacity:1"
       id="circle13547"
       cx="-186.61839"
       cy="209.62083"
       r="43.665592" />
    <circle
       style="fill:#ff0000;stroke:none;stroke-width:2;stroke-miterlimit:4;stroke-dasharray:none;stroke-dashoffset:0;stroke-opacity:1;stop-color:#000000;fill-opacity:1"
       id="circle13549"
       cx="-98.247551"
       cy="304.74945"
       r="43.665592" />
    <circle
       style="fill:#ff0000;stroke:none;stroke-width:2;stroke-miterlimit:4;stroke-dasharray:none;stroke-dashoffset:0;stroke-opacity:1;stop-color:#000000;fill-opacity:1"
       id="circle13551"
       cx="34.308716"
       cy="318.5249"
       r="43.665592" />
    <circle
       style="fill:#ff0000;stroke:none;stroke-width:2;stroke-miterlimit:4;stroke-dasharray:none;stroke-dashoffset:0;stroke-opacity:1;stop-color:#000000;fill-opacity:1"
       id="circle13553"
       cx="371.65152"
       cy="154.83141"
       r="43.665592" />
    <circle
       style="fill:#ff0000;stroke:none;stroke-width:2;stroke-miterlimit:4;stroke-dasharray:none;stroke-dashoffset:0;stroke-opacity:1;stop-color:#000000;fill-opacity:1"
       id="circle13555"
       cx="410.63867"
       cy="270.75317"
       r="43.665592" />
    <circle
       style="fill:#ff0000;stroke:none;stroke-width:2;stroke-miterlimit:4;stroke-dasharray:none;stroke-dashoffset:0;stroke-opacity:1;stop-color:#000000;fill-opacity:1"
       id="circle13557"
       cx="479.51596"
       cy="204.21512"
       r="43.665592" />
  </g>
  <g
     inkscape:groupmode="layer"
     id="layer3"
     inkscape:label="num"
     style="display:none">
    <text
       xml:space="preserve"
       style="font-style:normal;font-weight:normal;font-size:35.2778px;line-height:1.25;font-family:sans-serif;fill:#000000;fill-opacity:1;stroke:none;stroke-width:0.264583"
       x="474.17081"
       y="216.8688"
       id="text1597"><tspan
         sodipodi:role="line"
         id="tspan1595"
         style="font-style:normal;font-variant:normal;font-weight:normal;font-stretch:normal;font-size:35.2778px;font-family:'Roboto Slab';-inkscape-font-specification:'Roboto Slab';stroke-width:0.264583"
         x="474.17081"
         y="216.8688">1</tspan></text>
    <text
       xml:space="preserve"
       style="font-style:normal;font-weight:normal;font-size:35.2778px;line-height:1.25;font-family:sans-serif;fill:#000000;fill-opacity:1;stroke:none;stroke-width:0.264583"
       x="402.12625"
       y="283.39975"
       id="text2949"><tspan
         sodipodi:role="line"
         id="tspan2947"
         style="font-style:normal;font-variant:normal;font-weight:normal;font-stretch:normal;font-size:35.2778px;font-family:'Roboto Slab';-inkscape-font-specification:'Roboto Slab';stroke-width:0.264583"
         x="402.12625"
         y="283.39975">2</tspan></text>
    <text
       xml:space="preserve"
       style="font-style:normal;font-weight:normal;font-size:35.2778px;line-height:1.25;font-family:sans-serif;fill:#000000;fill-opacity:1;stroke:none;stroke-width:0.264583"
       x="361.69308"
       y="167.0625"
       id="text6967"><tspan
         sodipodi:role="line"
         id="tspan6965"
         style="font-style:normal;font-variant:normal;font-weight:normal;font-stretch:normal;font-size:35.2778px;font-family:'Roboto Slab';-inkscape-font-specification:'Roboto Slab';stroke-width:0.264583"
         x="361.69308"
         y="167.0625">3</tspan></text>
    <text
       xml:space="preserve"
       style="font-style:normal;font-weight:normal;font-size:35.2778px;line-height:1.25;font-family:sans-serif;fill:#000000;fill-opacity:1;stroke:none;stroke-width:0.264583"
       x="23.80456"
       y="330.80847"
       id="text9379"><tspan
         sodipodi:role="line"
         id="tspan9377"
         style="font-style:normal;font-variant:normal;font-weight:normal;font-stretch:normal;font-size:35.2778px;font-family:'Roboto Slab';-inkscape-font-specification:'Roboto Slab';stroke-width:0.264583"
         x="23.80456"
         y="330.80847">4</tspan></text>
    <text
       xml:space="preserve"
       style="font-style:normal;font-weight:normal;font-size:35.2778px;line-height:1.25;font-family:sans-serif;fill:#000000;fill-opacity:1;stroke:none;stroke-width:0.264583"
       x="-108.23188"
       y="316.25327"
       id="text10493"><tspan
         sodipodi:role="line"
         id="tspan10491"
         style="font-style:normal;font-variant:normal;font-weight:normal;font-stretch:normal;font-size:35.2778px;font-family:'Roboto Slab';-inkscape-font-specification:'Roboto Slab';stroke-width:0.264583"
         x="-108.23188"
         y="316.25327">5</tspan></text>
    <text
       xml:space="preserve"
       style="font-style:normal;font-weight:normal;font-size:35.2778px;line-height:1.25;font-family:sans-serif;fill:#000000;fill-opacity:1;stroke:none;stroke-width:0.264583"
       x="-197.64238"
       y="221.64449"
       id="text11115"><tspan
         sodipodi:role="line"
         id="tspan11113"
         style="font-style:normal;font-variant:normal;font-weight:normal;font-stretch:normal;font-size:35.2778px;font-family:'Roboto Slab';-inkscape-font-specification:'Roboto Slab';stroke-width:0.264583"
         x="-197.64238"
         y="221.64449">6</tspan></text>
    <text
       xml:space="preserve"
       style="font-style:normal;font-weight:normal;font-size:35.2778px;line-height:1.25;font-family:sans-serif;fill:#000000;fill-opacity:1;stroke:none;stroke-width:0.264583"
       x="-221.55449"
       y="120.79776"
       id="text12757"><tspan
         sodipodi:role="line"
         id="tspan12755"
         style="font-style:normal;font-variant:normal;font-weight:normal;font-stretch:normal;font-size:35.2778px;font-family:'Roboto Slab';-inkscape-font-specification:'Roboto Slab';stroke-width:0.264583"
         x="-221.55449"
         y="120.79776">7</tspan></text>
    <text
       xml:space="preserve"
       style="font-style:normal;font-weight:normal;font-size:35.2778px;line-height:1.25;font-family:sans-serif;fill:#000000;fill-opacity:1;stroke:none;stroke-width:0.264583"
       x="-340.07538"
       y="173.30045"
       id="text13331"><tspan
         sodipodi:role="line"
         id="tspan13329"
         style="font-style:normal;font-variant:normal;font-weight:normal;font-stretch:normal;font-size:35.2778px;font-family:'Roboto Slab';-inkscape-font-specification:'Roboto Slab';stroke-width:0.264583"
         x="-340.07538"
         y="173.30045">8</tspan></text>
  </g>
  <g
     inkscape:label="GRF-points copy"
     inkscape:groupmode="layer"
     id="g1143"
     style="display:none"
     sodipodi:insensitive="true">
    <path
       style="fill:#0c0d0e;stroke:none;stroke-width:0.264583"
       d="m 494.82567,167.21916 c -6.37805,-2.55778 -12.71831,-3.79988 -19.62701,-3.57587 -25.76586,0.83393 -43.43905,26.4971 -36.88993,50.83539 3.59211,13.34159 13.9811,23.84295 26.65029,28.81269 5.39056,2.11444 11.32963,2.95076 17.09381,2.67181 5.5224,-0.26762 11.10024,-1.45675 16.07249,-3.95177 5.8423,-2.93308 11.80363,-7.24709 15.52667,-12.7272 14.46383,-21.28971 5.2596,-52.40631 -18.82632,-62.06505 m 0.37071,2.00372 c 28.66093,12.31267 32.22952,54.62453 4.61039,70.09314 -6.02588,3.37274 -12.7231,4.95555 -19.5902,5.06516 -5.6301,0.089 -11.51091,-1.12334 -16.65342,-3.43459 -24.4952,-11.00834 -33.47549,-42.93083 -14.81724,-63.4951 3.35839,-3.70022 7.59308,-6.45763 12.05367,-8.62205 4.65661,-2.26054 9.87965,-3.41193 15.03134,-3.63542 6.77465,-0.29345 13.19419,1.37753 19.36546,4.02886 m -105.6265,-51.47037 c -7.71553,-3.19921 -15.6948,-5.43892 -24.1716,-4.17107 -6.30613,0.94247 -12.28763,2.97365 -17.61927,6.49332 -3.76294,2.48534 -7.22942,5.59492 -9.84372,9.28694 -3.83324,5.40641 -6.76047,11.49782 -7.78922,18.11095 -2.87921,18.50716 8.69965,37.40394 25.64598,44.65977 17.91119,7.6696 39.60975,2.67267 51.11364,-13.4797 14.11306,-19.81433 5.37213,-51.48467 -17.33581,-60.90021 m 1.28673,2.53382 c 4.67861,2.01409 9.26227,6.40984 12.33224,10.38994 11.21278,14.54081 12.04473,34.52579 0.53105,49.19228 -11.21704,14.29027 -31.67786,17.87362 -47.83685,10.51876 -24.21572,-11.02143 -31.96928,-42.03128 -14.66175,-62.4891 2.97458,-3.51699 6.92525,-6.50742 11.0146,-8.61092 8.80017,-4.52673 19.45459,-5.63992 28.99755,-2.97067 3.42481,0.95782 6.39568,2.58017 9.62316,3.96971 m 92.30362,70.31295 0.39688,-0.68741 -5.7284,-3.30729 -0.39688,0.68741 c 2.50567,1.52851 1.18221,6.0486 -1.84419,5.82949 -1.60408,-0.11619 -3.05563,-1.45437 -3.92341,-2.71887 -2.98934,-4.3579 0.19862,-11.6629 5.52764,-12.21999 4.10899,-0.42832 7.65226,2.7426 6.41968,6.87246 1.5847,0.22384 2.90374,-2.79107 1.98122,-4.04012 -1.8125,-2.45395 -5.83291,-4.08406 -8.76936,-4.31082 -8.59296,-0.66347 -11.77529,10.63756 -5.23179,15.41173 1.18435,0.86434 5.86301,3.94197 7.29099,2.90797 1.72404,-1.25046 1.22005,-5.17706 4.27762,-4.42456 m 6.49874,-7.55198 0.56663,3.08257 -4.28976,7.59948 -2.00723,3.08504 -2.43624,-0.15122 -0.39688,0.68741 6.31896,3.34274 0.13229,-0.22914 c -2.06885,-2.50205 -0.14042,-4.51928 1.24507,-6.91902 3.04755,1.79646 1.65339,5.09491 2.41485,8.08345 0.46306,1.81203 1.77765,2.80535 3.27555,3.75631 l -0.76084,-3.80451 -0.27595,-6.57054 c 3.26464,0.71135 6.86542,-2.54616 4.91781,-5.89323 -1.65385,-2.83987 -5.96834,-4.48976 -8.70423,-6.06933 m 14.20643,8.20209 0.62959,2.82533 -4.61735,8.31498 -1.80909,2.58839 -2.50208,0.11629 -0.1323,0.22914 c 1.46528,1.54194 4.34781,3.20617 6.41581,3.70417 l 0.1323,-0.22914 c -2.35372,-2.73893 -0.27763,-4.81082 1.28051,-7.50959 1.71394,0.98954 4.4523,1.85044 3.65667,4.24979 l 0.91654,0.52916 2.38125,-4.12444 c -1.08534,-0.2368 -2.03854,0.41935 -3.14159,0.14973 -4.76966,-1.16844 -1.34484,-5.079 0.15588,-7.67832 2.44259,1.41023 5.01731,2.4064 4.04405,5.6955 l 0.91655,0.52917 1.25262,-3.54545 -2.47615,-1.74367 -7.10321,-4.10104 m -14.54445,1.37922 c 0.80367,-1.392 2.20754,-5.31053 3.72811,-5.91224 1.13691,-0.45049 2.86617,1.26923 3.23423,2.20335 0.97484,2.48664 -1.46395,5.7371 -4.12632,5.14676 -1.0155,-0.22548 -1.94698,-0.92458 -2.83602,-1.43787 m -117.34167,-47.58328 2.90132,-4.70774 2.17766,-0.91433 -5.72839,-3.30729 c 0.10742,1.20037 1.50962,1.79852 1.15388,3.12376 -1.33374,4.97181 -6.60148,3.16322 -8.00231,-0.76577 -2.16106,-6.0571 5.06752,-14.28053 11.04194,-9.62136 0.96072,0.74898 1.84741,1.7479 2.05332,2.98405 0.21858,1.30945 -0.45667,2.44198 0.68169,3.39128 0.48002,-1.00602 1.57819,-2.74951 1.3467,-3.8883 -0.31516,-1.55493 -2.86718,-2.79677 -4.10329,-3.50799 -5.50655,-3.16766 -12.50064,-1.28233 -13.86579,5.43721 -0.29699,1.45632 -0.2223,2.87212 0.32772,4.25837 0.67325,1.69141 1.86224,2.79643 3.21239,3.9557 1.97916,1.69961 4.49509,2.4272 6.80316,3.56241 m 11.2777,-12.12521 -0.39688,0.6874 c 2.83083,2.49991 -2.03994,7.26391 -3.42313,9.63321 -0.6089,1.04465 -1.18621,2.58903 -2.26911,3.2317 -0.85778,0.51206 -1.711,0.18015 -2.53579,-0.20104 0.10337,1.99054 4.21648,3.43892 5.78979,4.25929 l -0.78559,-2.32759 2.52438,-4.91742 c 2.84906,1.73809 1.54446,5.04548 2.02588,7.87875 0.35131,2.07441 1.58753,3.06586 3.3031,4.05787 l -0.6825,-3.75501 -0.12516,-6.48777 c 3.29339,0.81503 7.08996,-2.25245 5.15356,-5.77238 -1.49315,-2.71075 -5.96517,-4.77573 -8.57855,-6.28701 m 13.94184,8.66036 0.59139,3.09259 -3.48077,5.62671 -2.99964,4.67694 -2.50675,0.0873 -0.39688,0.68741 6.18667,3.57188 0.26458,-0.45828 c -2.64508,-2.14428 0.21161,-5.12901 1.50966,-7.37729 1.84225,1.06362 4.48651,2.19863 3.39209,4.70806 l 0.91654,0.52916 2.51354,-4.35358 -2.55623,0.17303 -3.73678,-1.97321 3.89786,-5.69295 c 2.55161,2.41202 3.92818,2.27139 3.77947,6.15377 l 0.45826,0.26458 1.98438,-3.43704 -9.81739,-6.2791 m -14.50901,0.78865 c 0.66746,-1.05026 1.45399,-1.9945 2.08123,-3.07561 0.41574,-0.71409 0.78352,-1.64285 1.38185,-2.22403 1.20947,-1.1794 2.97853,0.51899 3.50599,1.63741 1.36233,2.8897 -1.91929,6.09715 -4.74791,5.10684 -0.86925,-0.30419 -1.53162,-0.85553 -2.22112,-1.44459 m 93.32412,68.5454 -4.55677,-1.10327 -0.26458,0.45826 1.61838,1.94349 -1.17911,2.58733 -4.52077,7.43862 -3.06225,0.4039 6.4158,3.70417 c -0.0514,-1.04859 -1.14555,-1.61948 -0.9909,-2.72872 0.63862,-4.53511 5.94781,-8.02649 6.5402,-12.70378 m -113.62104,-50.3234 c 1.15838,-0.0855 2.53927,-0.50879 3.63294,0.0576 1.33374,0.69024 1.71803,2.88213 0.45571,3.8303 -1.59608,1.19816 -3.74706,-0.13506 -5.09509,1.03033 3.09564,1.31098 4.40545,6.1067 0.17015,7.05542 -3.09105,0.69188 -2.7184,-2.7793 -4.79078,-3.20621 -1.94983,-0.40106 -0.54922,2.41177 0.0911,2.93787 1.98327,1.62898 5.74109,1.91475 7.96434,0.68335 2.51401,-1.39105 2.86557,-4.84692 0.6637,-6.63173 1.09352,-0.39121 2.52378,-0.25439 3.42463,-1.07916 3.82658,-3.50048 -4.29162,-9.10316 -6.51668,-4.67774 m 64.85703,73.93099 c -6.41218,-2.64682 -13.34247,-4.33803 -20.33994,-3.92851 -5.61542,0.32818 -11.13295,1.60865 -16.20718,4.08451 -4.57634,2.23263 -9.14906,5.35856 -12.36804,9.35708 -4.97722,6.17605 -8.78202,13.1842 -9.90482,21.16673 -2.75478,19.5881 10.19156,37.96312 27.92592,45.05527 5.3364,2.13418 11.6734,3.05911 17.3858,2.69525 12.37222,-0.78652 24.64054,-6.88054 31.68209,-17.35179 13.79333,-20.51465 5.05953,-51.48826 -18.17383,-61.07854 m 0.14105,1.87237 c 22.03161,9.43323 30.19912,40.13887 15.85377,59.17018 -11.61969,15.42162 -31.62418,19.41049 -48.97896,11.96252 -16.06456,-6.894 -26.49838,-24.79485 -24.06421,-42.21895 0.83025,-5.94654 3.34448,-10.79344 6.30133,-15.91485 2.66674,-4.61892 6.76191,-8.39938 11.27265,-11.21158 3.74216,-2.33296 7.88287,-4.19204 12.2097,-5.11936 9.53875,-2.0436 18.56275,-0.45454 27.40566,3.332 m -16.68282,25.72049 c 0.89864,-3.01171 2.30168,-3.93362 4.8144,-5.16379 l -5.82524,-3.66872 c 0.056,1.14132 1.37022,1.66425 1.21341,2.87247 -0.55915,4.25989 -4.73796,4.16886 -7.024,1.37093 -1.84756,-2.26094 -1.69367,-5.37969 -0.56626,-7.92507 1.1124,-2.50884 3.53367,-4.58064 6.34318,-4.7214 3.90337,-0.19386 7.49834,2.96689 6.04565,6.98585 l 0.91654,0.52917 c 0.52277,-0.92146 1.55952,-2.49479 1.45137,-3.58804 -0.25942,-2.63574 -5.84044,-4.81187 -7.98207,-5.20879 -5.04789,-0.93527 -9.6499,2.61184 -10.16318,7.71302 -0.16479,1.64538 0.14105,3.09473 0.94968,4.54107 0.81897,1.46545 2.29976,2.73711 3.70641,3.63447 1.80202,1.14918 4.00231,2.27529 6.12011,2.62883 m 10.78398,-11.79923 0.88921,2.59791 -1.69965,3.04448 -5.01677,7.76326 -2.43625,-0.1512 -0.39688,0.68741 5.82525,3.66871 0.39687,-0.6874 c -2.23385,-1.97285 0.19084,-4.56389 1.34191,-6.5576 3.13535,1.49093 1.71671,5.12811 2.26217,7.99866 0.35793,1.88301 1.74208,3.09979 3.42824,3.8411 l -1.16908,-10.14592 c 3.22436,0.4107 7.48455,-2.27974 5.28381,-5.98742 -1.71829,-2.89756 -5.90418,-4.45273 -8.70881,-6.07198 m 13.94185,8.66036 c 0.10861,0.91784 0.90389,1.61469 0.76228,2.59551 -0.37711,2.57406 -3.14256,5.62828 -4.56165,7.73701 -0.60869,0.90608 -1.02336,2.17469 -1.90415,2.85889 -0.83068,0.645 -1.68188,0.44717 -2.55995,0.063 l -0.39687,0.68741 6.05437,3.80101 0.39688,-0.6874 c -2.0174,-1.48523 -0.69339,-6.20206 1.83587,-6.65645 2.05854,-0.36933 3.88908,2.27561 3.06588,3.98721 l 0.91654,0.52916 2.51354,-4.35358 -2.67013,0.3703 -3.39373,-2.03823 c 1.61436,-2.79615 4.09337,-7.89954 7.2528,-3.04779 0.8212,1.26052 -0.11571,2.66633 0.8828,3.77319 l 1.75524,-3.56933 -9.94969,-6.04996 m -14.27986,0.92095 c 0.80367,-1.39201 2.20754,-5.31054 3.72811,-5.91224 1.37533,-0.54594 3.22375,1.62354 3.42616,2.77579 0.85855,4.91587 -4.32215,4.77157 -7.15427,3.13645 m -21.11664,18.05424 c 1.22972,-0.1085 2.57053,-0.64228 3.77728,-0.19243 2.72244,1.01547 2.15714,4.38642 0.24616,5.87602 -3.08561,2.40224 -8.14869,1.60972 -10.8931,4.09836 l 8.21344,5.35306 2.63633,-2.4496 -0.55511,-0.62601 c -2.64258,1.02107 -4.9373,-1.07918 -7.20955,-2.32935 3.79151,-1.01613 14.90967,-2.31343 11.59013,-8.97278 -1.3031,-2.61659 -6.39201,-3.84593 -7.80558,-0.75727 M -193.17135,72.460752 c -7.45061,-3.088712 -14.81806,-4.876817 -22.95793,-4.156545 -5.39492,0.478093 -10.85673,2.011309 -15.58223,4.690653 -4.59444,2.605291 -8.59137,5.821371 -11.95637,9.900281 -18.13165,21.977329 -6.74805,54.050949 18.2258,64.510139 5.36523,2.24829 11.32318,3.17678 17.11552,3.16338 4.66121,-0.0127 9.3912,-1.04878 13.73935,-2.67504 27.90107,-10.43136 34.19134,-47.02065 12.93696,-67.342181 -3.29855,-3.15398 -7.27297,-6.328491 -11.5211,-8.090687 m -1.46396,0.948157 c 23.4491,9.951603 31.64266,41.100001 15.97486,61.071951 -3.54812,4.52311 -8.27652,8.06844 -13.40628,10.59075 -4.71005,2.31553 -10.09528,3.59967 -15.32585,3.87935 -6.64774,0.35359 -13.14979,-1.13957 -19.22113,-3.74969 -24.25841,-10.41886 -31.89696,-42.2428 -14.92357,-62.298079 2.86277,-3.382071 6.48573,-6.221349 10.3488,-8.384305 5.2705,-2.951275 11.2853,-4.376028 17.2778,-4.76574 6.54667,-0.427209 13.28207,1.112076 19.27537,3.655763 m -15.89804,26.477864 2.90174,-4.706882 2.17725,-0.915179 -5.7284,-3.30729 c 0.0997,1.111587 1.36761,1.687809 1.2126,2.872304 -0.50878,3.882639 -4.23464,4.138968 -6.63371,1.754831 -2.05733,-2.046298 -2.22399,-5.249603 -1.19054,-7.83334 0.97552,-2.440001 2.98419,-4.70205 5.65743,-5.187269 4.33847,-0.785572 8.29204,2.538827 6.96619,6.976258 1.46607,0.29651 2.82236,-2.546889 2.09906,-3.783274 -1.75712,-3.003377 -6.41671,-4.755652 -9.68651,-4.770674 -6.08897,-0.02954 -10.28943,7.260686 -7.23636,12.533735 2.02649,3.504126 6.07246,4.700496 9.46126,6.366785 m 11.2777,-12.12521 -0.39688,0.687408 c 3.02523,2.229328 -2.08898,7.348335 -3.4229,9.633341 -0.60447,1.034984 -1.1859,2.599603 -2.26676,3.228173 -0.8267,0.48202 -1.71634,0.0814 -2.53837,-0.19764 0.0963,1.8673 4.26013,3.4464 5.7898,4.25928 l -0.78527,-2.32923 2.52405,-4.915775 c 2.96414,1.809152 1.51687,5.299625 2.11742,8.221835 0.39315,1.91037 1.62342,2.79786 3.21155,3.71477 l -0.68285,-3.7549 -0.1248,-6.487863 c 3.28342,0.716393 7.08868,-2.252882 5.15247,-5.772099 -1.49167,-2.709583 -5.96458,-4.77569 -8.57746,-6.2873 m 13.94183,8.660355 0.59252,3.091718 -3.48235,5.627329 -2.99912,4.67815 -2.50681,0.0864 -0.39688,0.6874 6.18667,3.57188 -1.0144,-2.46152 2.78864,-5.37405 3.47803,2.41132 0.83061,2.8259 2.51354,-4.35358 -2.33028,0.26163 -3.96274,-2.06181 c 1.23333,-1.30434 2.01396,-4.37622 3.59735,-5.15765 3.10557,-1.534062 4.14359,3.95042 4.07997,5.61847 l 0.45828,0.26458 1.98437,-3.43704 -9.8174,-6.279107 m -14.50899,0.788661 c 0.66801,-1.050237 1.45497,-1.995143 2.08121,-3.075615 0.41758,-0.721272 0.7901,-1.645772 1.38782,-2.235562 1.21197,-1.197507 2.96792,0.522029 3.50082,1.648476 1.36177,2.891212 -1.92146,6.097729 -4.74865,5.107039 -0.87009,-0.303761 -1.53219,-0.85401 -2.22124,-1.444358 m -18.80627,15.110926 -2.44265,3.17245 2.91004,-0.27518 5.57748,3.03686 -13.88553,8.17544 c 2.30147,1.31652 3.47447,-0.1876 5.51857,-1.39657 3.68649,-2.17935 7.24743,-4.57785 10.86151,-6.86622 l -8.53942,-5.84678 m 271.810361,168.9732 c -8.970607,-3.71883 -17.936764,-5.93195 -27.713909,-3.85644 -5.219362,1.10799 -10.281842,3.09784 -14.693261,6.1296 -4.7748364,3.28022 -8.7639843,7.51204 -11.8745247,12.39165 -13.4660623,21.13316 -1.9121504,50.08498 20.2747337,59.58281 16.89129,7.23475 38.891695,3.11201 50.090216,-12.23626 14.558247,-19.9557 7.647829,-52.17193 -16.083255,-62.01136 m -1.693091,0.81586 c 20.029797,8.60377 29.847372,34.15483 20.256316,53.76739 -4.152522,8.49414 -11.422022,14.98398 -20.060308,18.66411 -4.655518,1.98346 -9.953559,3.00019 -15.016277,2.97962 -5.962243,-0.0236 -11.961378,-1.26917 -17.403134,-3.72355 -16.3399879,-7.37473 -26.8878605,-25.1627 -23.9704888,-43.11682 0.9447539,-5.8062 3.4672341,-10.54568 6.4852488,-15.50316 3.1026839,-5.10413 7.6806903,-9.21289 12.927945,-12.08898 5.634454,-3.08637 11.84368,-4.43248 18.19511,-4.77077 6.399032,-0.34137 12.758122,1.28616 18.585588,3.79216 m -11.048187,20.72352 -5.728403,-3.3073 c 0.06052,1.2234 1.516156,1.77662 1.154413,3.12284 -1.344853,5.00694 -6.576737,3.10448 -8.009709,-0.76881 -2.290679,-6.19243 5.023852,-14.02499 11.066141,-9.64742 1.012112,0.73405 1.855967,1.74367 2.065963,3.00448 0.216328,1.31335 -0.490696,2.44799 0.651716,3.40086 0.437186,-1.04297 1.543153,-2.74162 1.334977,-3.89445 -0.236695,-1.30983 -2.359648,-2.49581 -3.404149,-3.10496 -3.996993,-2.33214 -9.095491,-3.23795 -12.497328,0.72805 -4.749116,5.53753 -1.08517,12.13481 4.891638,14.56205 0.878257,0.35736 1.952238,1.12713 2.925015,1.11439 1.569442,-0.0196 2.232244,-3.16256 3.184603,-4.1189 0.672508,-0.67798 1.655886,-0.49212 2.365123,-1.09083 m 6.198706,-6.50316 0.592054,3.09146 -4.412052,7.22916 -2.253348,3.25731 -2.551561,-0.22665 c 0.103375,1.99053 4.216217,3.43938 5.789794,4.25929 l -0.80287,-2.32413 2.541663,-4.92087 c 2.849699,1.73695 1.543927,5.04638 2.025877,7.87874 0.350776,2.07531 1.586872,3.06699 3.303101,4.05786 l -0.682631,-3.75477 -0.125026,-6.48799 c 3.276284,0.79171 7.073881,-2.28282 5.153154,-5.77171 -1.493285,-2.71051 -5.965031,-4.77596 -8.578155,-6.2877 m 13.941848,8.66036 0.662125,2.8325 -4.879011,8.17552 -2.163059,2.66174 -2.377257,-0.0893 -0.13229,0.22913 6.283512,3.9333 0.26458,-0.45827 c -2.772225,-2.04049 0.247592,-5.19134 1.509652,-7.37729 1.982029,1.14432 4.222913,2.0837 3.392095,4.70805 l 0.916541,0.52917 2.513545,-4.35359 -2.556628,0.17371 -3.736383,-1.97389 3.897854,-5.69294 3.732175,2.99188 0.505571,3.42646 1.984375,-3.43703 -9.817397,-6.27911 m -10.70799,-5.26572 c 3.33002,1.18019 5.100533,6.34212 0.675923,7.61873 -1.102452,0.3167 -4.246173,-0.17546 -4.150274,-1.81264 0.09845,-1.62043 2.629006,-4.34191 3.474351,-5.80609 M -171.20365,172.52407 c -6.38909,-2.5614 -13.12148,-3.89424 -20.01277,-3.43686 -5.44701,0.36246 -10.71268,1.71258 -15.61677,4.12077 -4.13487,2.03047 -8.01473,4.84059 -11.1339,8.23654 -5.47335,5.95957 -9.46577,13.54404 -10.7398,21.60119 -2.95235,18.66718 8.86004,37.97649 26.16891,44.91769 6.38932,2.56152 13.16677,3.80734 20.05643,3.36123 5.10761,-0.33234 10.09437,-1.75182 14.71072,-3.93203 5.48621,-2.59148 10.57241,-6.51683 14.41503,-11.23041 16.96234,-20.80713 6.38583,-53.92095 -17.84785,-63.63812 m 3.71065,3.62713 c 4.58792,2.03782 9.03344,6.45586 12.02544,10.39216 10.17044,13.37229 11.9776,31.82692 2.37715,46.10588 -10.45543,15.54815 -31.7913,21.59436 -48.91735,13.86662 -11.86518,-5.35639 -21.07123,-15.54446 -24.27092,-28.32007 -4.79957,-19.16494 6.82738,-39.6643 25.53659,-45.74832 11.91637,-3.87418 22.31427,-1.15217 33.24909,3.70373 m -19.33507,24.4935 2.99493,-4.64392 2.1809,-0.61671 -5.82525,-3.66872 c 0.0565,1.21189 1.49767,1.82399 1.15355,3.1254 -1.06147,4.00652 -4.58526,4.02818 -6.96413,1.11801 -1.69894,-2.08074 -1.77694,-4.77458 -0.89577,-7.19878 0.95923,-2.63882 3.15588,-4.84122 5.97743,-5.30498 4.24962,-0.69939 7.78802,2.65722 6.7409,6.84314 l 0.91654,0.52916 c 0.4849,-0.92987 1.66903,-2.77283 1.37594,-3.83415 -0.94777,-3.40986 -7.5819,-5.30923 -10.55363,-5.13993 -4.00931,0.2271 -6.96133,3.79287 -7.54223,7.56973 -0.23458,1.52655 -0.0236,2.99261 0.63241,4.39791 0.68096,1.45634 2.04741,2.79213 3.36907,3.68962 1.97491,1.34185 4.19612,2.34018 6.43934,3.13422 m 11.1454,-11.89608 c 0.10848,0.91808 0.90419,1.61578 0.76227,2.59398 -0.3846,2.63146 -3.18279,5.54975 -4.57332,7.73181 -0.58626,0.92024 -1.02115,2.18145 -1.89609,2.87087 -0.84807,0.66826 -1.66872,0.48471 -2.55631,0.0578 l -0.39687,0.68741 5.82523,3.66871 0.39688,-0.68741 c -2.31312,-1.86096 0.22802,-4.62827 1.34192,-6.55759 3.35041,1.97408 1.28004,5.78918 2.48185,8.95162 0.51279,1.34702 1.92323,3.11149 3.47313,2.42987 -1.7989,-2.81669 -1.37532,-6.48882 -1.43366,-9.68765 3.46051,0.43981 7.33089,-2.35439 5.05794,-6.11691 -1.6659,-2.76129 -5.7867,-4.38582 -8.48294,-5.94249 m 13.94184,8.66036 c 0.0376,1.03294 0.98636,1.77931 0.6966,2.85852 -0.65878,2.45177 -2.82137,4.65551 -4.1163,6.77667 -0.68123,1.11593 -1.24255,2.73797 -2.28747,3.56145 -0.84807,0.66826 -1.66871,0.4847 -2.55631,0.0578 l -0.39688,0.68741 6.05438,3.80101 0.39687,-0.68741 c -2.68975,-1.98065 0.14176,-5.00803 1.37737,-7.14816 1.92795,0.81676 4.59194,2.03402 3.52438,4.47893 l 0.91654,0.52916 2.51354,-4.35358 c -0.95428,-0.16906 -1.69988,0.50643 -2.6713,0.37024 -5.16533,-0.72445 -1.51535,-5.28957 -0.0853,-7.76653 2.61811,1.51156 5.03927,2.48476 3.91176,5.92463 l 0.91654,0.52916 1.75524,-3.56932 -9.94969,-6.04997 m -14.509,0.78866 c 1.13646,-1.32971 2.3798,-5.15487 3.95719,-5.7809 1.14351,-0.45186 2.88768,1.24254 3.24016,2.19149 0.91645,2.46608 -1.52448,5.51122 -4.10108,5.10513 -1.11052,-0.17677 -2.14009,-0.96367 -3.09627,-1.51572 m 196.451721,131.75232 5.825237,3.66872 c -1.329819,1.55719 -1.934754,2.90659 -4.143441,1.88499 0.100823,1.97379 4.011324,3.31802 5.560661,4.12699 -0.270762,-2.28271 -0.892495,-2.68749 0.41587,-4.95365 l 2.062223,1.19063 0.529165,-0.91654 -1.929933,-1.41976 5.388508,-8.80401 c -1.349801,-0.4402 -2.448104,0.12332 -3.729448,0.59643 -2.984433,1.09989 -7.843711,2.19275 -9.978842,4.6262 M -311.75317,126.50887 c -9.46099,-3.92251 -18.62326,-6.49022 -28.99188,-4.28876 -5.09637,1.08124 -10.05905,3.08289 -14.38476,6.0022 -18.60486,12.55703 -22.89089,38.05539 -10.41783,56.53631 5.0221,7.43946 12.35077,12.84385 20.6072,16.16562 17.68402,7.12112 40.14462,0.71913 50.28251,-15.79142 10.53654,-17.16027 6.11914,-40.18013 -9.03525,-53.00508 -2.40525,-2.03637 -5.12758,-4.40245 -8.05999,-5.61887 m -1.46396,0.94815 c 23.93975,10.29293 29.70158,44.1832 12.33981,62.63944 -12.14868,12.91467 -31.27191,15.1057 -46.98686,7.95436 -26.78448,-12.19197 -31.23185,-50.79204 -7.13138,-67.91791 12.71473,-9.03471 27.98436,-8.60822 41.77843,-2.67589 m 343.839055,198.73249 -3.933312,6.28351 -4.353579,-2.51354 c 2.006074,-1.82362 5.667174,-3.13775 8.286891,-3.76997 M -80.460749,268.2945 c -9.299182,-3.85352 -18.563404,-5.89962 -28.665911,-3.79503 -5.14962,1.07187 -10.47458,3.26763 -14.70869,6.4262 -4.22424,3.15206 -7.89948,6.7555 -10.73936,11.21396 -13.96839,21.91854 -2.87865,50.60544 20.33613,60.53479 17.396712,7.44407 39.032555,2.20652 50.161083,-13.4174 12.300247,-17.2724 8.056472,-41.71959 -7.887516,-55.04013 -2.530683,-2.1149 -5.427388,-4.64887 -8.495762,-5.9224 m -2.741935,0.51583 c 27.727122,11.87159 33.593829,51.99686 7.67586,69.11214 -6.044443,3.99229 -12.691664,5.90124 -19.8505,6.47912 -5.57217,0.44908 -11.87461,-0.56221 -17.03455,-2.77446 -6.74432,-2.89175 -12.87582,-6.69146 -17.52416,-12.50976 -3.71006,-4.64416 -6.47305,-9.93916 -8.05263,-15.67521 -4.95205,-18.01869 5.09589,-38.01516 22.25474,-45.17149 10.42918,-4.34787 22.236551,-3.8703 32.53124,0.53966 M -330.49,153.14113 c 1.06834,-3.01882 2.42279,-4.0302 4.94669,-5.39292 l -5.59611,-3.53644 -0.39687,0.68741 c 2.14792,1.40203 1.31066,4.91172 -1.20735,5.62709 -1.54788,0.43838 -3.0716,-0.74992 -4.05131,-1.81048 -4.59992,-4.9899 0.43884,-14.10887 7.10776,-12.84017 1.95563,0.37141 4.19058,1.94284 4.62248,3.95807 0.26419,1.23099 -0.27614,2.36106 0.62468,3.35775 0.5517,-0.96158 1.7379,-2.68418 1.42233,-3.84097 -0.77502,-2.83964 -6.30148,-4.77162 -8.81664,-5.04756 -4.58592,-0.50297 -8.36092,2.83512 -9.17475,7.26571 -0.2896,1.57423 -0.14537,3.06592 0.53804,4.52063 0.75637,1.60987 2.12205,2.87189 3.55231,3.89929 1.91401,1.37695 4.2164,2.37014 6.42876,3.15255 m 11.1454,-11.89607 0.63425,2.5384 -1.9318,3.43378 -4.75916,7.30067 -2.43592,-0.15072 -0.39688,0.6874 5.82524,3.66873 0.39688,-0.68741 c -2.05155,-1.81077 0.71309,-7.30253 2.66897,-5.67532 1.01898,0.84494 0.73271,2.50969 0.74711,3.67591 0.035,2.95928 0.19334,6.40828 3.61624,7.28158 l 0.26458,-0.45828 c -1.81098,-2.83282 -1.24339,-6.48292 -1.43367,-9.68764 3.48305,0.44365 7.56786,-2.40395 5.11099,-6.2146 -1.67984,-2.60436 -5.69722,-4.20584 -8.30685,-5.71251 m 122.8143,78.85024 c 1.56693,-1.65249 3.5803,-2.28649 5.84209,-2.18131 1.3303,0.0623 2.94177,0.8827 4.0133,-0.072 -4.06662,-1.42521 -8.24486,-2.14802 -11.90814,0.76269 -2.96601,2.35703 -5.4538,8.01169 -1.33229,10.52873 4.32766,2.64522 11.33487,-1.63138 7.81443,-6.65794 -1.07904,-1.54259 -2.728,-1.92024 -4.42939,-2.38012 m -109.23388,-70.09304 -0.13229,0.22914 c 0.53089,0.64257 1.14575,1.23281 1.02781,2.1393 -0.33885,2.61204 -3.30949,6.0968 -4.80887,8.2038 -0.58101,0.81634 -0.96061,1.99033 -1.78192,2.60377 -0.81436,0.6083 -1.63539,0.25343 -2.43592,-0.15071 l -0.39688,0.6874 6.05438,3.80101 0.39688,-0.68741 c -2.09882,-1.54475 -0.3327,-6.98977 2.35956,-6.6544 2.81845,0.35018 2.21216,3.11639 3.45873,4.51433 l 2.51354,-4.35358 c -2.80802,0.0133 -3.65557,0.15944 -6.06388,-1.66789 1.61528,-2.79775 4.14851,-7.81514 7.25276,-3.0472 0.8215,1.25947 -0.11492,2.66495 0.88284,3.77261 l 1.75523,-3.56934 -10.08197,-5.82083 m -14.14757,0.69181 c 0.83079,-1.43897 2.19448,-5.2313 3.76837,-5.8899 1.1104,-0.46488 2.8841,1.2313 3.23943,2.14831 0.97332,2.51417 -1.45876,5.77522 -4.1731,5.17963 -1.01262,-0.22413 -1.94703,-0.92554 -2.8347,-1.43804 m 221.401571,144.62957 c 0.663718,-1.87455 2.161243,-5.49492 4.549817,-4.70551 l 0.396875,-0.68741 -5.596099,-3.53643 -0.396875,0.6874 c 2.299542,1.62094 0.813453,6.13696 -2.115489,5.75964 -3.23957,-0.41612 -5.16393,-4.12096 -4.94102,-7.08408 0.38649,-5.13558 5.5911,-9.63108 10.632584,-6.98618 1.13776,0.5958 2.207142,1.44234 2.707416,2.66604 0.503538,1.22865 0.17522,2.51167 -0.0069,3.76909 1.710256,-0.17353 2.87369,-3.20465 1.656186,-4.46668 -2.408567,-2.49043 -5.938024,-4.35708 -9.463526,-4.23559 -5.52475,0.19232 -9.97525,6.62023 -7.42078,11.79484 1.8783,3.80046 6.21728,5.68843 9.997848,7.02487 m -98.020118,-75.22834 -0.36143,0.0969 0.36143,-0.0969 m 109.165522,63.33227 -0.396875,0.68741 c 1.516452,1.11992 1.016284,2.30374 0.167681,3.76298 -1.448822,2.49363 -4.876484,10.48361 -8.263418,8.67175 l -0.396875,0.68741 5.825236,3.66872 0.396875,-0.68741 c -2.205006,-1.77411 0.771046,-7.25686 2.668751,-5.67545 1.026356,0.85226 0.684362,2.48177 0.703115,3.6505 0.04427,2.95545 0.259463,6.44035 3.660453,7.30712 l 0.264585,-0.45828 c -1.820526,-2.8475 -1.242538,-6.47327 -1.433668,-9.68764 3.464136,0.76269 7.194779,-2.16414 5.20995,-5.8489 -1.477057,-2.74391 -5.800535,-4.57406 -8.40581,-6.07821 M -196.05315,221.38815 c 4.25598,1.54065 1.5014,9.22265 -2.28749,7.66145 -3.31592,-1.36759 -1.15229,-8.90502 2.28749,-7.66145 m 122.401072,70.56749 c 0.04235,0.95322 0.887462,1.60612 0.765237,2.59569 -0.32997,2.61411 -3.318167,6.10707 -4.810878,8.20569 -0.586521,0.82538 -0.968122,1.98904 -1.788076,2.61549 -0.888106,0.67571 -1.898406,0.0496 -2.826642,0.52498 l 6.054379,3.801 0.396875,-0.6874 c -2.069118,-1.41152 -0.672319,-6.21739 1.850436,-6.59701 2.027534,-0.30504 3.867023,2.22916 3.051311,3.92776 l 0.916544,0.52917 2.51354,-4.35358 c -1.048937,0.0177 -1.882758,0.73691 -2.962421,0.35798 -3.136743,-1.10221 -2.798242,-2.83151 -1.228747,-5.22187 0.380972,-0.58048 0.906864,-1.7189 1.610157,-1.94221 0.91002,-0.29032 2.335426,0.78622 2.988673,1.33751 1.648136,1.39455 0.464912,3.19525 1.664057,4.5261 l 1.755239,-3.56933 -9.949684,-6.04997 m -14.279865,0.92095 c 0.870475,-1.50771 2.069732,-4.91838 3.644716,-5.74134 1.205589,-0.63293 2.916489,1.03921 3.338646,2.04368 1.050156,2.50966 -1.479328,5.72668 -4.147747,5.13623 -1.015359,-0.22572 -1.946568,-0.92528 -2.835615,-1.43857 m -252.560327,-119.23603 -0.13229,0.22914 c -3.84689,-0.47651 -7.91151,3.53148 -4.27859,6.88155 4.41242,4.06898 11.50111,0.22436 7.75107,-5.48774 1.01908,-0.18764 2.19613,-0.18326 3.13018,-0.66441 5.19087,-2.6795 -2.84034,-11.37661 -6.53745,-5.57999 -0.39019,0.61184 -0.69267,1.28653 -0.73526,2.01962 -0.0578,0.99925 0.24844,1.80544 0.80234,2.60183 m 5.10726,-5.14134 c 2.64953,1.38306 0.30487,6.73847 -2.2571,5.48844 -2.72996,-1.33477 -1.01029,-7.19462 2.2571,-5.48844 m 229.79248,140.14975 -4.98214,5.98347 c 1.43364,0.70245 3.12633,1.1573 3.98025,2.63101 1.47006,2.54436 -0.2417,5.78438 -3.27819,5.67799 -1.84769,-0.0647 -3.08758,-3.521 -4.37055,-3.19853 -1.1325,0.28409 -0.52964,1.83282 -0.0517,2.40204 1.89961,2.26075 6.87711,2.47654 9.14043,0.81061 2.20901,-1.63008 2.2028,-5.10125 0.14172,-6.84419 -1.07402,-0.90727 -2.44319,-1.49914 -3.7548,-1.96314 l 2.80408,-3.26931 c 1.97973,1.143 4.57279,3.62081 6.751276,2.06477 l -6.380356,-4.29472 M -340.08505,175.0519 c 2.96841,1.61602 1.32796,8.11127 -2.39075,6.25756 -3.37982,-1.68554 -0.83,-8.01013 2.39075,-6.25756 z"
       id="path1141"
       sodipodi:nodetypes="cccccccccccccccccccccccccccccsccccccscccssccccccccccccccccccccccccccccccccccccccccccccccccccccccccccccccccccccccccccccccccccccccccccccccccccccccccccccccccccccccccccscccccccssccccccccccccccccccccccccccccccccccccccccccccccccccccccccccccccccccccccccccccccccccccccccccccccccccccccccccccccccccccccccccccccccccccccccccccccsccccccccccccccccccccccccccccccccccccccccccccccccccccccccccccccccccccsccccccccccccccccccccsccccccccccccsccccccccccccsccccccccccccccccccccccccccccccccccccccccccccccccccccccccccccccccccccccccccccsccccccccccccccccccccccccccccsccccccccccccccccccccccccccccccccccccccccccccccccccccccccccscccccccccccccccccsccsccccccccsccccccccccc" />
  </g>
</svg>
